<svg width="347" height="372" viewBox="0 0 347 372" fill="none" xmlns="http://www.w3.org/2000/svg">
<path d="M173.5 317.951C247.815 317.951 308.06 314.191 308.06 309.552C308.06 304.913 247.815 301.153 173.5 301.153C99.1848 301.153 38.9404 304.913 38.9404 309.552C38.9404 314.191 99.1848 317.951 173.5 317.951Z" fill="#F5F5F5"/>
<path d="M262.02 81.6913H182.147C179.408 81.7394 176.783 82.8776 174.787 84.8835C172.79 86.8894 171.564 89.619 171.349 92.5393L158.926 297.005C158.825 298.397 158.996 299.797 159.428 301.114C159.86 302.432 160.544 303.639 161.437 304.659C162.329 305.679 163.41 306.488 164.611 307.037C165.812 307.586 167.107 307.861 168.413 307.845H248.313C251.052 307.799 253.676 306.663 255.673 304.658C257.67 302.653 258.896 299.924 259.112 297.005L268.023 150.044C268.401 149.903 268.734 149.648 268.98 149.31C269.226 148.971 269.376 148.564 269.411 148.137L271.007 121.841C271.035 121.432 270.938 121.025 270.73 120.681C270.522 120.337 270.215 120.075 269.855 119.934L271.514 92.5393C271.615 91.1461 271.444 89.7457 271.011 88.427C270.579 87.1084 269.894 85.9004 269.001 84.8801C268.108 83.8597 267.026 83.0492 265.824 82.5003C264.622 81.9513 263.327 81.6758 262.02 81.6913Z" fill="#F48F56"/>
<path d="M164.881 134.633H166.449C166.934 134.624 167.399 134.422 167.753 134.067C168.107 133.711 168.325 133.228 168.365 132.711L169.059 121.73C169.076 121.482 169.045 121.234 168.968 121.001C168.891 120.767 168.769 120.553 168.61 120.372C168.452 120.192 168.26 120.048 168.047 119.951C167.834 119.854 167.604 119.805 167.372 119.808H165.811C165.325 119.815 164.859 120.017 164.505 120.372C164.151 120.728 163.933 121.212 163.895 121.73L163.201 132.711C163.184 132.958 163.215 133.205 163.291 133.438C163.368 133.671 163.489 133.885 163.647 134.066C163.805 134.246 163.996 134.39 164.208 134.487C164.421 134.585 164.65 134.635 164.881 134.633Z" fill="#F48F56"/>
<path d="M163.694 154.237H165.255C165.743 154.227 166.209 154.025 166.564 153.668C166.92 153.312 167.138 152.827 167.178 152.307L167.872 141.333C167.889 141.086 167.858 140.838 167.781 140.604C167.704 140.371 167.582 140.157 167.424 139.976C167.265 139.795 167.073 139.652 166.86 139.555C166.647 139.458 166.417 139.409 166.185 139.411H164.624C164.137 139.419 163.671 139.62 163.315 139.975C162.96 140.331 162.741 140.815 162.702 141.333L162.008 152.307C161.988 152.555 162.017 152.805 162.094 153.04C162.17 153.275 162.292 153.49 162.45 153.672C162.609 153.854 162.802 153.998 163.016 154.095C163.23 154.192 163.461 154.241 163.694 154.237Z" fill="#F48F56"/>
<path d="M244.066 307.845H164.194C162.887 307.861 161.593 307.586 160.392 307.037C159.191 306.488 158.11 305.678 157.217 304.659C156.325 303.639 155.641 302.432 155.208 301.114C154.776 299.797 154.605 298.397 154.707 297.005L167.101 92.5393C167.318 89.6183 168.546 86.8886 170.544 84.8829C172.541 82.8771 175.167 81.7392 177.907 81.6912H257.772C259.079 81.6767 260.374 81.953 261.575 82.5024C262.776 83.0519 263.857 83.8625 264.749 84.8828C265.641 85.903 266.325 87.1106 266.757 88.4287C267.19 89.7468 267.361 91.1467 267.259 92.5393L254.865 297.005C254.649 299.924 253.423 302.653 251.426 304.658C249.429 306.663 246.805 307.799 244.066 307.845Z" fill="#263238"/>
<path opacity="0.2" d="M209.559 299.151C212.357 296.255 212.567 291.636 210.03 288.833C207.492 286.03 203.166 286.105 200.368 289.001C197.57 291.897 197.359 296.516 199.897 299.319C202.435 302.122 206.761 302.047 209.559 299.151Z" fill="white"/>
<path d="M251.284 281.304H160.487C160.178 281.304 159.872 281.236 159.589 281.104C159.305 280.973 159.05 280.78 158.838 280.539C158.627 280.298 158.464 280.013 158.36 279.701C158.256 279.39 158.212 279.059 158.232 278.73L168.857 103.38C168.904 102.774 169.162 102.21 169.579 101.797C169.997 101.385 170.544 101.156 171.113 101.154H261.916C262.225 101.154 262.531 101.222 262.814 101.354C263.098 101.486 263.353 101.678 263.565 101.919C263.776 102.161 263.939 102.446 264.043 102.757C264.147 103.068 264.191 103.399 264.171 103.729L253.539 279.041C253.502 279.654 253.248 280.229 252.829 280.649C252.411 281.069 251.858 281.304 251.284 281.304Z" fill="white"/>
<path opacity="0.2" d="M225.95 212.191C236.106 201.679 236.87 184.909 227.657 174.733C218.444 164.558 202.742 164.83 192.585 175.342C182.429 185.854 181.665 202.624 190.878 212.8C200.091 222.976 215.793 222.703 225.95 212.191Z" fill="#F48F56"/>
<path opacity="0.2" d="M206.812 234.625C185.735 234.625 169.697 216.29 171.064 193.756C172.431 171.221 190.684 152.886 211.767 152.886C232.851 152.886 248.882 171.221 247.515 193.756C246.148 216.29 227.868 234.625 206.812 234.625ZM211.67 153.628C190.975 153.628 173.049 171.629 171.71 193.756C170.37 215.882 186.11 233.883 206.805 233.883C227.5 233.883 245.426 215.882 246.773 193.756C248.119 171.629 232.393 153.628 211.67 153.628Z" fill="#F48F56"/>
<path d="M203.342 206.6L201.26 202.304C196.749 192.947 186.36 184.585 182.73 182.151L186.159 176.667C190.454 179.546 199.039 186.677 204.425 195.151C214.384 182.537 228.458 169.544 247.3 155.528L250.513 160.722C230.387 175.695 215.903 189.385 206.271 202.578L203.342 206.6Z" fill="#F48F56"/>
<path opacity="0.2" d="M202.358 93.3632C203.49 92.1918 203.573 90.3208 202.544 89.1843C201.515 88.0477 199.763 88.0761 198.631 89.2475C197.5 90.419 197.416 92.29 198.445 93.4265C199.474 94.563 201.226 94.5347 202.358 93.3632Z" fill="white"/>
<path opacity="0.2" d="M210.219 88.3471H233.184C233.541 88.3427 233.895 88.418 234.223 88.5684C234.551 88.7188 234.846 88.9408 235.089 89.2203C235.332 89.4998 235.518 89.8305 235.634 90.1912C235.751 90.552 235.796 90.9348 235.766 91.3151C235.709 92.1127 235.376 92.8589 234.831 93.4078C234.287 93.9567 233.571 94.2688 232.823 94.2831H209.866C209.509 94.2863 209.155 94.2102 208.827 94.0595C208.499 93.9088 208.204 93.6869 207.961 93.4078C207.717 93.1287 207.531 92.7985 207.413 92.4383C207.295 92.078 207.249 91.6955 207.277 91.3151C207.334 90.5175 207.667 89.7713 208.211 89.2224C208.755 88.6735 209.471 88.3614 210.219 88.3471Z" fill="white"/>
<path d="M124.74 143.166C123.567 144.449 122.311 145.867 121.152 147.276C119.993 148.686 118.834 150.133 117.744 151.617C116.654 153.101 115.662 154.585 114.635 156.151L113.941 157.316L113.247 158.496C113.018 158.889 112.81 159.289 112.608 159.698L112.053 160.788C111.827 161.412 111.698 162.071 111.672 162.74C111.616 163.599 111.616 164.462 111.672 165.322C111.808 167.177 112.039 169.022 112.366 170.85C112.671 172.72 113.06 174.597 113.469 176.467C113.878 178.337 114.33 180.229 114.788 182.069L112.22 183.1C110.642 179.471 109.32 175.721 108.264 171.881C107.728 169.902 107.318 167.887 107.036 165.849C106.895 164.762 106.823 163.666 106.82 162.569C106.804 161.276 107.009 159.992 107.424 158.777C107.584 158.362 107.667 158.199 107.778 157.946L108.097 157.242C108.306 156.774 108.521 156.307 108.791 155.854L109.485 154.489L110.221 153.161C111.201 151.411 112.269 149.719 113.42 148.093C114.559 146.468 115.738 144.887 116.981 143.359C118.223 141.83 119.479 140.391 120.923 138.907L124.74 143.166Z" fill="#B55B52"/>
<path d="M125.038 134.262C121.276 134.44 117.702 141.118 117.702 141.118L122.671 151.958C122.671 151.958 129.403 145.963 129.487 140.086C129.542 136.236 128.737 134.076 125.038 134.262Z" fill="#F48F56"/>
<path opacity="0.7" d="M125.038 134.262C121.276 134.44 117.702 141.118 117.702 141.118L122.671 151.958C122.671 151.958 129.403 145.963 129.487 140.086C129.542 136.236 128.737 134.076 125.038 134.262Z" fill="white"/>
<path opacity="0.2" d="M125.933 142.053C124.837 143.826 124.309 148.427 124.143 150.474C125.798 148.753 127.202 146.774 128.307 144.605C127.564 142.624 126.655 140.888 125.933 142.053Z" fill="black"/>
<path d="M114.045 180.941L118.618 182.425L115.572 185.72C115.572 185.72 112.275 184.629 111.817 182.232L114.045 180.941Z" fill="#B55B52"/>
<path d="M121.388 186.157L120.617 189.311L115.572 185.69L118.618 182.395L121.388 186.157Z" fill="#B55B52"/>
<path d="M151.479 121.388C151.334 121.826 151.438 122.271 151.708 122.375C151.979 122.479 152.312 122.219 152.451 121.781C152.59 121.344 152.493 120.891 152.222 120.787C151.951 120.683 151.625 120.943 151.479 121.388Z" fill="#263238"/>
<path d="M152.097 120.765L153.186 120.861C153.186 120.861 152.409 121.477 152.097 120.765Z" fill="#263238"/>
<path d="M151.687 121.952C151.728 123.107 151.915 124.25 152.243 125.351C151.978 125.425 151.701 125.436 151.431 125.385C151.162 125.334 150.906 125.221 150.681 125.054L151.687 121.952Z" fill="#A02724"/>
<path d="M152.826 119.674C152.776 119.667 152.73 119.644 152.693 119.608C152.656 119.572 152.63 119.525 152.617 119.474C152.541 119.138 152.395 118.826 152.189 118.56C151.984 118.294 151.724 118.081 151.431 117.938C151.368 117.913 151.316 117.862 151.288 117.797C151.259 117.732 151.256 117.657 151.278 117.589C151.289 117.555 151.306 117.524 151.329 117.497C151.351 117.47 151.378 117.448 151.409 117.433C151.439 117.418 151.472 117.409 151.506 117.408C151.539 117.407 151.573 117.413 151.604 117.426C151.982 117.601 152.316 117.869 152.579 118.208C152.841 118.547 153.026 118.948 153.117 119.377C153.125 119.412 153.127 119.449 153.122 119.485C153.117 119.52 153.106 119.555 153.088 119.586C153.071 119.617 153.048 119.644 153.021 119.665C152.994 119.687 152.963 119.702 152.93 119.711L152.826 119.674Z" fill="#263238"/>
<path d="M137.224 123.25C137.322 126.76 136.989 133.075 134.448 134.863C134.448 134.863 134.789 138.469 140.694 139.693C147.183 141.036 144.324 136.911 144.324 136.911C140.924 135.278 141.444 132.503 142.464 130.01L137.224 123.25Z" fill="#B55B52"/>
<path d="M156.511 147.269C157.094 148.968 157.76 150.808 158.468 152.552C159.176 154.296 159.856 156.062 160.682 157.746C161.508 159.43 162.313 161.122 163.187 162.762C163.638 163.571 164.089 164.38 164.575 165.151C164.811 165.552 165.054 165.938 165.311 166.301L165.686 166.865L165.873 167.155L165.97 167.296L166.033 167.37C166.484 167.919 167.002 168.4 167.573 168.802C168.261 169.304 168.975 169.765 169.711 170.182C171.231 171.058 172.862 171.851 174.52 172.601C176.179 173.35 177.872 174.085 179.586 174.73C181.301 175.376 183.056 176.059 184.743 176.689L184.097 179.546C180.378 178.881 176.704 177.957 173.097 176.778C171.251 176.176 169.439 175.46 167.67 174.634C166.743 174.194 165.839 173.698 164.964 173.15C163.948 172.531 163.028 171.747 162.236 170.828L162.07 170.627L161.952 170.471L161.723 170.167L161.265 169.544C160.952 169.136 160.654 168.72 160.376 168.297C159.787 167.459 159.245 166.598 158.711 165.73C157.658 164.008 156.687 162.23 155.803 160.402C154.922 158.585 154.089 156.752 153.325 154.882C152.562 153.012 151.875 151.172 151.243 149.124L156.511 147.269Z" fill="#B55B52"/>
<path d="M183.826 176.675L187.921 174.983L187.72 180.036C187.72 180.036 184.402 180.978 182.862 179.19L183.826 176.675Z" fill="#B55B52"/>
<path d="M191.01 176.719L192.411 179.947L187.72 180.036L187.921 174.983L191.01 176.719Z" fill="#B55B52"/>
<path d="M123.102 303.356L128.522 303.787L130.132 290.483L124.712 290.052L123.102 303.356Z" fill="#B55B52"/>
<path d="M80.1707 273.261L83.7101 277.757L94.2172 270.538L90.6778 266.041L80.1707 273.261Z" fill="#B55B52"/>
<path d="M85.3619 277.178L82.5096 271.317C82.4642 271.215 82.3853 271.134 82.2881 271.09C82.1909 271.047 82.082 271.043 81.9821 271.079L77.4503 272.756C77.3366 272.805 77.2338 272.879 77.1488 272.973C77.0639 273.068 76.9986 273.181 76.9572 273.304C76.9159 273.427 76.8995 273.559 76.9092 273.689C76.9188 273.82 76.9542 273.947 77.0131 274.062C78.0402 276.088 78.6301 277.03 79.8793 279.59C80.6566 281.17 81.6351 283.574 82.6969 285.763C83.7588 287.952 85.7852 286.98 85.5215 285.964C84.3278 281.43 85.119 280.176 85.5215 278.21C85.5787 277.857 85.5225 277.493 85.3619 277.178Z" fill="#263238"/>
<path d="M128.862 302.963H122.769C122.664 302.962 122.562 303 122.482 303.073C122.401 303.145 122.348 303.246 122.331 303.356L121.512 308.506C121.496 308.634 121.505 308.765 121.539 308.889C121.574 309.013 121.633 309.128 121.712 309.226C121.792 309.324 121.89 309.402 122.001 309.456C122.111 309.51 122.231 309.537 122.352 309.537C124.483 309.5 125.503 309.366 128.182 309.366C129.833 309.366 133.234 309.552 135.51 309.552C137.787 309.552 137.967 307.148 137.023 306.925C132.797 305.953 131.159 304.603 129.757 303.319C129.51 303.087 129.191 302.96 128.862 302.963Z" fill="#263238"/>
<path opacity="0.2" d="M130.132 290.483L129.236 297.88L123.837 297.301L124.712 290.06L130.132 290.483Z" fill="black"/>
<path opacity="0.2" d="M90.6778 266.041L94.2172 270.538L89.8658 273.528L86.1946 269.12L90.6778 266.041Z" fill="black"/>
<path d="M123.532 169.544L145.268 174.048C155.539 141.719 153.083 140.658 153.083 140.658C151.486 139.735 149.838 138.918 148.148 138.209L147.85 138.091C146.462 137.549 146.17 137.467 144.31 136.888C141.104 136.08 138.127 135.404 134.442 134.848L133.748 134.744C133.054 134.655 132.415 134.581 131.777 134.514C131.346 134.462 130.916 134.432 130.507 134.403L129.119 134.321C126.745 134.195 125.045 134.232 125.045 134.232C126.239 154.422 125.329 160.232 123.532 169.544Z" fill="#F48F56"/>
<path opacity="0.7" d="M123.532 169.544L145.268 174.048C155.539 141.719 153.083 140.658 153.083 140.658C151.486 139.735 149.838 138.918 148.148 138.209L147.85 138.091C146.462 137.549 146.17 137.467 144.31 136.888C141.104 136.08 138.127 135.404 134.442 134.848L133.748 134.744C133.054 134.655 132.415 134.581 131.777 134.514C131.346 134.462 130.916 134.432 130.507 134.403L129.119 134.321C126.745 134.195 125.045 134.232 125.045 134.232C126.239 154.422 125.329 160.232 123.532 169.544Z" fill="white"/>
<path opacity="0.2" d="M149.959 148.204L147.995 147.863C147.995 150.63 148.981 155.379 149.939 158.399C150.751 155.431 151.382 152.99 151.861 150.935L149.959 148.204Z" fill="black"/>
<path d="M152.326 140.265C155.539 141.363 157.878 148.16 158.752 151.09L152.506 158.933C152.506 158.933 146.108 149.102 147.128 146.052C148.127 142.877 150.771 139.723 152.326 140.265Z" fill="#F48F56"/>
<path opacity="0.7" d="M152.326 140.265C155.539 141.363 157.878 148.16 158.752 151.09L152.506 158.933C152.506 158.933 146.108 149.102 147.128 146.052C148.127 142.877 150.771 139.723 152.326 140.265Z" fill="white"/>
<path d="M154.408 115.17C153.762 117.196 150.938 118.005 148.127 116.988C145.316 115.971 143.54 113.486 144.185 111.46C144.831 109.434 147.655 108.626 150.431 109.65C153.207 110.674 155.046 113.144 154.408 115.17Z" fill="#263238"/>
<path d="M138.106 114.614C136.662 120.134 135.941 122.434 137.592 126.233C140.077 131.954 146.725 132.852 149.682 127.948C152.34 123.54 154.255 115.252 150.008 111.104C149.112 110.178 148.005 109.518 146.797 109.188C145.589 108.859 144.322 108.872 143.12 109.227C141.918 109.581 140.824 110.264 139.945 111.209C139.065 112.154 138.432 113.327 138.106 114.614Z" fill="#B55B52"/>
<path d="M146.17 108.166C144.088 109.442 139.667 101.451 134.178 108.166C130.25 112.981 132.755 120.038 132.755 120.038C132.755 120.038 129.625 114.154 127.127 117.025C123.865 120.735 127.238 134.01 137.995 133.097C148.752 132.184 147.711 122.85 147.711 122.85C147.711 122.85 152.749 117.374 152.5 112.462C152.312 108.782 149.64 106.066 146.17 108.166Z" fill="#263238"/>
<path d="M147.475 119.355C147.207 120.382 147.241 121.473 147.572 122.479C148.016 123.896 149.036 123.904 149.578 122.924C150.119 121.945 150.418 120.245 149.647 119.103C148.877 117.96 147.822 118.22 147.475 119.355Z" fill="#B55B52"/>
<path d="M139.494 172.846C139.494 172.846 137.176 181.438 134.199 192.776C132.221 200.33 129.944 209.1 127.869 217.358C126.683 222.085 125.565 226.641 124.601 230.714C119.146 253.754 91.941 273.558 91.941 273.558L86.6736 267.362C86.6736 267.362 104.954 250.904 110.27 229.409C121.006 185.771 114.968 178.411 123.525 169.544L139.494 172.846Z" fill="#263238"/>
<path opacity="0.2" d="M137.148 180.548C136.343 183.879 135.33 188.087 134.212 192.791C132.235 200.344 129.958 209.115 127.883 217.373C126.995 206.837 126.495 187.463 133.748 181.438C135.177 180.266 136.308 180.021 137.148 180.548Z" fill="black"/>
<path d="M92.3921 274.448L85.813 266.709L87.8048 264.572L95.876 272.704L92.3921 274.448Z" fill="#F48F56"/>
<path opacity="0.7" d="M92.3921 274.448L85.813 266.709L87.8048 264.572L95.876 272.704L92.3921 274.448Z" fill="white"/>
<path d="M86.3544 280.325C86.2882 280.323 86.2226 280.311 86.16 280.288C85.5146 280.035 85.1052 278.715 84.9178 277.95C84.9117 277.924 84.9131 277.897 84.9218 277.872C84.9304 277.847 84.946 277.825 84.9664 277.809C84.9865 277.794 85.0108 277.785 85.0358 277.785C85.0607 277.785 85.085 277.794 85.1052 277.809C85.2995 277.928 87.0067 278.996 87.0414 279.746C87.0472 279.827 87.0321 279.909 86.9979 279.982C86.9637 280.056 86.9116 280.117 86.8471 280.161C86.7053 280.275 86.5313 280.332 86.3544 280.325ZM85.2509 278.21C85.5354 279.212 85.8963 279.887 86.2503 280.02C86.3259 280.046 86.4063 280.05 86.4839 280.033C86.5615 280.016 86.6339 279.979 86.6944 279.924C86.7846 279.857 86.7916 279.79 86.7846 279.746C86.7499 279.36 85.9241 278.663 85.2509 278.21Z" fill="#F48F56"/>
<path d="M144.921 174.048C144.921 174.048 146.309 219.918 143.242 237.199C140.091 255.208 130.472 296.018 130.472 296.018L122.657 294.942C122.657 294.942 127.599 253.642 129.702 235.79C131.985 216.32 129.008 170.724 129.008 170.724L144.921 174.048Z" fill="#263238"/>
<path d="M132.151 296.53L121.013 294.994L121.145 292.159L133.269 292.723L132.151 296.53Z" fill="#F48F56"/>
<path opacity="0.7" d="M132.151 296.53L121.013 294.994L121.145 292.159L133.269 292.723L132.151 296.53Z" fill="white"/>
<path d="M86.6181 278.529C86.0416 278.499 85.479 278.329 84.9734 278.032C84.9544 278.019 84.9387 278.002 84.9278 277.981C84.9169 277.96 84.9111 277.937 84.9109 277.913C84.9139 277.889 84.9217 277.866 84.9337 277.846C84.9456 277.825 84.9615 277.808 84.9803 277.794C85.0427 277.794 86.3683 277.015 87.1317 277.32C87.2274 277.357 87.3143 277.416 87.3862 277.493C87.4582 277.569 87.5135 277.662 87.5481 277.765C87.5937 277.863 87.6069 277.976 87.5855 278.083C87.5641 278.191 87.5093 278.288 87.4301 278.358C87.1836 278.507 86.8989 278.567 86.6181 278.529ZM85.3204 277.928C85.9241 278.225 86.979 278.388 87.2705 278.143C87.3191 278.099 87.3676 278.032 87.2705 277.861C87.2501 277.795 87.2156 277.736 87.1698 277.687C87.124 277.638 87.0682 277.601 87.0068 277.579C86.4245 277.509 85.8362 277.631 85.3204 277.928Z" fill="#F48F56"/>
<path d="M130.874 303.972C130.303 303.959 129.734 303.89 129.174 303.764C129.148 303.761 129.123 303.748 129.104 303.728C129.085 303.708 129.073 303.681 129.07 303.653C129.066 303.625 129.07 303.596 129.083 303.57C129.095 303.545 129.115 303.524 129.139 303.512C129.389 303.371 131.582 302.191 132.235 302.584C132.297 302.621 132.349 302.675 132.386 302.74C132.422 302.805 132.442 302.88 132.443 302.955C132.456 303.079 132.441 303.204 132.397 303.32C132.353 303.435 132.283 303.537 132.193 303.616C131.803 303.889 131.339 304.014 130.874 303.972ZM129.604 303.571C130.798 303.787 131.686 303.727 132.027 303.416C132.085 303.361 132.13 303.292 132.158 303.214C132.186 303.136 132.195 303.053 132.186 302.97C132.188 302.94 132.182 302.91 132.168 302.884C132.155 302.858 132.135 302.836 132.11 302.822C131.756 302.614 130.507 303.111 129.604 303.571Z" fill="#F48F56"/>
<path d="M129.202 303.772C129.177 303.779 129.15 303.779 129.125 303.772C129.107 303.758 129.092 303.739 129.082 303.716C129.072 303.694 129.068 303.67 129.07 303.646C129.07 303.542 129.341 301.034 130.652 301.182C130.999 301.219 131.103 301.405 131.124 301.561C131.221 302.214 129.91 303.475 129.25 303.787L129.202 303.772ZM130.548 301.42C129.771 301.42 129.459 302.792 129.361 303.386C130.055 302.955 130.93 301.969 130.874 301.575C130.874 301.575 130.874 301.449 130.625 301.427L130.548 301.42Z" fill="#F48F56"/>
<path d="M123.393 168.127L122.095 169.989C121.998 170.137 122.151 170.338 122.401 170.39L145.199 175.109C145.393 175.109 145.573 175.109 145.601 174.953L146.122 172.92C146.122 172.786 146.004 172.623 145.788 172.579L123.775 168.023C123.708 168.004 123.638 168.003 123.571 168.021C123.504 168.04 123.443 168.076 123.393 168.127Z" fill="#F48F56"/>
<path d="M125.947 171.362L125.357 171.236C125.239 171.236 125.163 171.132 125.184 171.058L125.878 168.423C125.878 168.349 126.016 168.305 126.127 168.327L126.717 168.453C126.835 168.453 126.919 168.557 126.898 168.631L126.204 171.265C126.176 171.362 126.065 171.362 125.947 171.362Z" fill="#263238"/>
<path d="M140.833 174.471L140.243 174.352C140.125 174.352 140.049 174.241 140.07 174.167L140.764 171.54C140.764 171.458 140.896 171.414 141.014 171.444L141.604 171.562C141.715 171.562 141.798 171.674 141.777 171.748L141.083 174.374C141.062 174.456 140.951 174.501 140.833 174.471Z" fill="#263238"/>
</svg>
