<svg width="419" height="421" viewBox="0 0 419 421" fill="none" xmlns="http://www.w3.org/2000/svg">
<path d="M209.5 359.528C299.235 359.528 371.98 355.271 371.98 350.02C371.98 344.768 299.235 340.511 209.5 340.511C119.765 340.511 47.0201 344.768 47.0201 350.02C47.0201 355.271 119.765 359.528 209.5 359.528Z" fill="#F5F5F5"/>
<path d="M132.077 208.228L131.306 207.9C131.912 206.566 132.321 205.152 132.521 203.7L133.359 203.792C133.149 205.325 132.717 206.82 132.077 208.228ZM131.75 198.618C130.971 196.872 129.758 195.356 128.228 194.214C126.698 193.071 124.902 192.34 123.01 192.091L123.144 191.251C125.173 191.522 127.099 192.308 128.739 193.536C130.379 194.764 131.678 196.392 132.513 198.265L131.75 198.618Z" fill="#F48F56"/>
<path d="M127.376 216.678L119.113 220.458L118.745 219.618C118.18 218.476 117.814 217.246 117.664 215.981C117.584 214.95 117.695 213.914 117.99 212.923C118.706 210.951 119.545 209.026 120.504 207.161C121.242 205.666 121.429 204.52 121.066 203.725C120.931 203.373 120.723 203.054 120.456 202.789C120.189 202.524 119.868 202.319 119.516 202.188C118.693 201.978 117.821 202.089 117.077 202.499C116.599 202.703 116.167 203.002 115.808 203.379C115.449 203.756 115.171 204.203 114.99 204.691C114.627 205.671 114.739 207.054 115.326 208.841L106.426 211.63C105.313 208.723 105.313 205.506 106.426 202.6C107.543 199.8 110.119 197.484 114.152 195.653C117.303 194.208 120.152 193.712 122.692 194.141C124.247 194.329 125.728 194.92 126.987 195.855C128.246 196.79 129.241 198.038 129.873 199.475C130.439 200.738 130.648 202.133 130.477 203.507C130.072 205.653 129.307 207.715 128.214 209.605C127.479 210.858 126.974 212.232 126.722 213.662C126.687 214.706 126.912 215.743 127.376 216.678ZM119.834 222.76L128.667 218.778L132.211 226.582L123.379 230.538L119.834 222.76Z" fill="#F48F56"/>
<path d="M106.962 235.351L102.772 241.063L102.236 240.618C101.419 240.05 100.702 239.349 100.116 238.543C99.6706 237.872 99.3551 237.122 99.1857 236.334C98.915 234.72 98.7554 233.089 98.708 231.454C98.641 230.152 98.3309 229.303 97.7862 228.934C97.5573 228.739 97.2887 228.597 96.9992 228.517C96.7097 228.437 96.4063 228.422 96.1102 228.472C95.469 228.64 94.9169 229.049 94.5683 229.614C94.3187 229.934 94.1372 230.302 94.0348 230.695C93.9325 231.088 93.9116 231.497 93.9733 231.899C94.2644 232.973 94.8969 233.923 95.775 234.604L90.747 239.904C88.8852 238.347 87.6594 236.159 87.3028 233.755C86.9956 231.437 87.8727 228.875 89.9341 226.069C91.2126 224.146 93.0413 222.656 95.18 221.794C96.3113 221.325 97.5449 221.161 98.759 221.317C99.973 221.473 101.125 221.945 102.102 222.684C102.969 223.329 103.642 224.201 104.046 225.204C104.584 226.829 104.845 228.533 104.817 230.244C104.788 231.386 104.964 232.524 105.337 233.604C105.724 234.314 106.283 234.914 106.962 235.351ZM104.138 242.374L108.63 236.258L114.01 240.232L109.518 246.347L104.138 242.374Z" fill="#F48F56"/>
<path d="M196.167 346.996C195.476 346.996 194.797 346.806 194.206 346.446C193.615 346.086 193.134 345.57 192.815 344.954C189.463 338.436 185.215 330.784 177.606 322.501C177.168 322.026 176.86 321.445 176.713 320.815C176.566 320.184 176.585 319.527 176.768 318.906C179.592 309.07 184.033 295.621 184.075 295.487C184.217 295.001 184.455 294.549 184.775 294.157C185.095 293.765 185.491 293.442 185.938 293.207C186.385 292.972 186.875 292.829 187.379 292.788C187.882 292.746 188.389 292.807 188.868 292.966C189.348 293.125 189.791 293.38 190.17 293.714C190.549 294.048 190.858 294.456 191.077 294.912C191.296 295.368 191.421 295.864 191.445 296.37C191.468 296.875 191.39 297.381 191.215 297.856C191.173 297.982 187.343 309.565 184.57 318.982C190.483 325.818 195.501 333.383 199.503 341.494C199.797 342.07 199.938 342.711 199.914 343.358C199.89 344.004 199.7 344.634 199.364 345.186C199.028 345.738 198.556 346.194 197.993 346.511C197.43 346.828 196.796 346.995 196.151 346.996H196.167Z" fill="#F48F56"/>
<path d="M202.427 350.02H173.273L188.726 341.233L201.673 341.737L202.427 350.02Z" fill="#263238"/>
<path d="M199.644 314.616C212.914 310.458 220.884 298.149 217.445 287.124C214.007 276.098 200.462 270.531 187.192 274.689C173.923 278.848 165.953 291.156 169.391 302.182C172.83 313.207 186.374 318.774 199.644 314.616Z" fill="#263238"/>
<path d="M127.083 280.938C126.215 280.935 125.375 280.631 124.705 280.078C124.036 279.525 123.577 278.757 123.408 277.904C123.238 277.051 123.368 276.165 123.775 275.397C124.182 274.629 124.841 274.026 125.641 273.689C126.293 273.416 126.864 272.983 127.304 272.429C127.743 271.875 128.036 271.22 128.155 270.522C128.23 269.702 128.572 268.929 129.128 268.322C129.683 267.715 130.422 267.308 131.231 267.162C132.164 266.971 133.087 266.733 133.996 266.448C139.091 264.961 145.401 263.088 165.262 268.683C184.854 257.704 185.081 237.107 185.081 236.217C185.081 235.218 185.475 234.261 186.176 233.553C186.878 232.844 187.831 232.443 188.827 232.437C189.819 232.436 190.771 232.829 191.475 233.529C192.18 234.229 192.58 235.18 192.589 236.175C192.589 237.275 192.472 263.13 167.449 276.075C166.596 276.518 165.606 276.614 164.684 276.343C145.745 270.867 140.382 272.429 136.133 273.681L134.977 274.017C134.418 275.501 133.561 276.855 132.46 277.995C131.359 279.135 130.036 280.036 128.574 280.644C128.102 280.842 127.595 280.942 127.083 280.938Z" fill="#263238"/>
<path d="M171.019 253.966C163.888 225.557 144.89 152.275 205.771 147.798C260.392 143.774 275.375 216.678 279.021 241.878C280.846 254.629 281.837 267.486 281.987 280.367C282.057 286.883 279.854 293.218 275.76 298.279C271.665 303.34 265.936 306.809 259.562 308.087C229.805 314.152 201.648 315.008 182.676 307.507C180.184 306.499 178.084 304.71 176.69 302.408C175.296 300.105 174.682 297.412 174.941 294.731C175.67 286.6 175.687 272.538 171.019 253.966Z" fill="#F48F56"/>
<path opacity="0.1" d="M279.054 241.895C275.618 218.106 262.11 152.015 214.813 147.815C212.115 147.541 209.396 148.073 207 149.345C204.603 150.617 202.636 152.572 201.346 154.963C199.235 159.062 199.302 164.027 202.461 168.941C212.852 185.178 237.716 241.181 233.961 271.698C232.285 285.583 223.562 296.671 231.12 312.278C240.675 311.44 250.172 310.038 259.562 308.078C265.936 306.801 271.665 303.332 275.76 298.271C279.854 293.209 282.057 286.874 281.987 280.358C281.847 267.487 280.867 254.638 279.054 241.895Z" fill="black"/>
<path d="M270.875 280.762C270.777 280.762 270.682 280.723 270.611 280.654C270.541 280.585 270.5 280.491 270.498 280.392C270.355 267.528 269.367 254.687 267.54 241.954C258.489 179.239 234.129 147.529 197.064 150.268C197.015 150.271 196.965 150.265 196.918 150.249C196.871 150.233 196.827 150.208 196.79 150.175C196.752 150.142 196.722 150.102 196.7 150.058C196.678 150.013 196.665 149.965 196.662 149.915C196.657 149.815 196.691 149.717 196.757 149.642C196.822 149.567 196.914 149.52 197.014 149.512C234.514 146.74 259.168 178.677 268.244 241.845C270.07 254.612 271.061 267.486 271.21 280.384C271.21 280.484 271.171 280.58 271.1 280.651C271.029 280.722 270.933 280.762 270.833 280.762H270.875Z" fill="#263238"/>
<path d="M270.306 316.617C283.576 312.459 291.546 300.15 288.107 289.125C284.669 278.099 271.124 272.532 257.854 276.69C244.585 280.848 236.615 293.157 240.053 304.183C243.492 315.208 257.037 320.775 270.306 316.617Z" fill="#263238"/>
<path d="M272.601 346.996C271.909 346.997 271.23 346.808 270.639 346.448C270.048 346.087 269.567 345.571 269.249 344.955C265.897 338.436 261.649 330.784 254.031 322.501C253.597 322.024 253.291 321.443 253.145 320.813C252.998 320.184 253.015 319.527 253.193 318.906C256.026 309.07 260.459 295.621 260.509 295.487C260.664 295.018 260.91 294.583 261.233 294.209C261.555 293.835 261.948 293.528 262.389 293.307C262.83 293.085 263.31 292.952 263.802 292.916C264.294 292.88 264.788 292.942 265.256 293.097C265.725 293.253 266.158 293.499 266.531 293.822C266.904 294.146 267.21 294.54 267.432 294.982C267.653 295.423 267.785 295.905 267.821 296.398C267.857 296.891 267.796 297.386 267.64 297.856C267.599 297.982 263.777 309.565 261.004 318.982C266.917 325.816 271.933 333.382 275.928 341.494C276.222 342.07 276.364 342.711 276.34 343.358C276.315 344.004 276.126 344.634 275.79 345.186C275.453 345.738 274.981 346.194 274.419 346.511C273.856 346.828 273.222 346.995 272.576 346.996H272.601Z" fill="#F48F56"/>
<path d="M264.708 232.142C263.867 232.143 263.05 231.861 262.388 231.342C261.726 230.823 261.256 230.097 261.054 229.279C260.851 228.462 260.928 227.6 261.271 226.83C261.614 226.061 262.204 225.43 262.948 225.036C263.668 224.65 280.035 215.687 284.627 194.149C273.733 189.58 254.107 179.256 249.816 174.065C249.394 173.563 249.106 172.962 248.978 172.318C248.483 169.216 248.771 166.039 249.816 163.078L247.839 159.247C247.381 158.356 247.295 157.319 247.6 156.365C247.905 155.41 248.575 154.616 249.464 154.157C250.353 153.698 251.388 153.612 252.34 153.917C253.293 154.223 254.085 154.895 254.543 155.786L257.383 161.297C257.689 161.874 257.839 162.52 257.819 163.173C257.798 163.826 257.607 164.462 257.266 165.018C256.499 166.553 256.174 168.272 256.328 169.982C261.163 174.359 280.63 184.716 290.208 188.269C291.02 188.571 291.703 189.145 292.141 189.893C292.579 190.642 292.746 191.519 292.613 192.377C288.364 219.904 267.356 231.244 266.467 231.714C265.924 231.999 265.32 232.146 264.708 232.142Z" fill="#263238"/>
<path d="M252.716 173.544C252.378 173.542 252.046 173.45 251.756 173.276C251.466 173.102 251.228 172.852 251.067 172.554C250.906 172.256 250.827 171.92 250.84 171.582C250.853 171.243 250.957 170.914 251.14 170.629C251.274 170.428 254.375 165.732 259.101 164.464C259.34 164.4 259.588 164.383 259.833 164.416C260.077 164.448 260.313 164.528 260.526 164.652C260.74 164.775 260.927 164.94 261.077 165.136C261.228 165.332 261.338 165.556 261.402 165.795C261.465 166.034 261.482 166.283 261.449 166.528C261.417 166.773 261.337 167.01 261.214 167.224C261.091 167.438 260.926 167.625 260.731 167.776C260.535 167.927 260.312 168.037 260.073 168.101C256.78 168.991 254.308 172.654 254.291 172.687C254.121 172.95 253.887 173.167 253.612 173.316C253.337 173.466 253.029 173.544 252.716 173.544Z" fill="#263238"/>
<path d="M278.861 350.02H249.707L265.16 341.233L278.107 341.737L278.861 350.02Z" fill="#263238"/>
<path d="M217.811 237.471C228.838 236.492 237.065 227.633 236.186 217.684C235.308 207.735 225.656 200.463 214.628 201.442C203.601 202.42 195.374 211.279 196.253 221.228C197.132 231.178 206.783 238.45 217.811 237.471Z" fill="white"/>
<path d="M214.065 230.913C216.99 230.078 218.131 225.075 216.615 219.739C215.098 214.403 211.498 210.754 208.574 211.589C205.649 212.424 204.508 217.427 206.025 222.763C207.541 228.099 211.141 231.748 214.065 230.913Z" fill="#263238"/>
<path d="M193.41 222.86C206.064 221.231 231.12 214.066 235.252 211.176C232 201.634 216.816 193.469 203.307 198.072C191.064 202.213 193.41 222.86 193.41 222.86Z" fill="#263238"/>
<path d="M195.866 228.993C211.578 226.002 232 220.979 237.841 217.762C237.481 228.027 234.489 238.434 218.467 241.954C205.36 244.818 195.866 228.993 195.866 228.993Z" fill="#263238"/>
<path d="M182.923 238.859C188.605 235.091 189.354 226.193 184.596 218.986C179.838 211.778 171.376 208.989 165.694 212.757C160.012 216.525 159.263 225.423 164.021 232.631C168.779 239.839 177.241 242.628 182.923 238.859Z" fill="white"/>
<path d="M174.589 226.069C175.536 230.572 174.715 234.326 172.745 234.469C170.776 234.612 168.413 231.059 167.458 226.556C166.502 222.054 167.332 218.308 169.293 218.156C171.254 218.005 173.634 221.567 174.589 226.069Z" fill="#263238"/>
<path d="M159.01 224.347C167.499 225.347 184.36 224.23 187.159 222.667C185.089 214.578 175.05 205.338 165.924 206.514C157.695 207.573 159.01 224.347 159.01 224.347Z" fill="#263238"/>
<path d="M160.586 229.648C171.136 230.126 184.888 229.858 188.81 228.371C188.449 236.443 186.338 244.138 175.561 244.012C166.762 243.911 160.586 229.648 160.586 229.648Z" fill="#263238"/>
<path d="M221.307 192.99C211.718 193.043 202.34 190.172 194.416 184.758C193.621 184.155 193.098 183.261 192.962 182.272C192.825 181.282 193.086 180.279 193.687 179.483C194.288 178.686 195.18 178.162 196.167 178.025C197.154 177.888 198.155 178.149 198.95 178.752C207.818 184.55 218.578 186.69 228.984 184.724C229.468 184.632 229.966 184.637 230.449 184.738C230.932 184.839 231.391 185.034 231.799 185.312C232.206 185.591 232.555 185.947 232.826 186.361C233.096 186.774 233.283 187.237 233.375 187.723C233.467 188.209 233.462 188.708 233.361 189.193C233.261 189.677 233.066 190.136 232.788 190.545C232.51 190.954 232.155 191.304 231.742 191.575C231.33 191.846 230.868 192.033 230.383 192.125C227.391 192.696 224.353 192.985 221.307 192.99Z" fill="#263238"/>
<path d="M154.092 186.497C153.49 186.494 152.898 186.347 152.364 186.067C151.831 185.788 151.372 185.385 151.026 184.891C150.68 184.398 150.456 183.829 150.375 183.231C150.293 182.634 150.355 182.025 150.555 181.457C152.541 175.896 155.851 172.292 160.377 170.73C168.572 167.899 177.405 173.401 177.782 173.636C178.605 174.179 179.183 175.023 179.392 175.987C179.601 176.952 179.425 177.961 178.901 178.796C178.376 179.632 177.546 180.228 176.588 180.457C175.63 180.686 174.62 180.529 173.776 180.02C172.1 178.954 166.762 176.484 162.798 177.862C160.519 178.66 158.826 180.667 157.628 184.01C157.365 184.739 156.884 185.368 156.251 185.813C155.618 186.258 154.864 186.497 154.092 186.497Z" fill="#263238"/>
<path d="M183.715 250.068C183.609 250.068 183.505 250.051 183.405 250.018C183.12 249.937 182.879 249.747 182.735 249.489C182.59 249.231 182.554 248.925 182.634 248.64C182.967 247.731 183.476 246.898 184.132 246.187C184.788 245.476 185.577 244.902 186.455 244.499C190.762 242.273 197.349 242.735 205.989 245.868C206.129 245.919 206.257 245.996 206.366 246.097C206.476 246.198 206.564 246.319 206.627 246.454C206.689 246.59 206.724 246.736 206.73 246.885C206.735 247.033 206.711 247.182 206.659 247.321C206.61 247.461 206.533 247.589 206.433 247.699C206.334 247.809 206.213 247.898 206.079 247.96C205.945 248.023 205.8 248.058 205.652 248.064C205.504 248.069 205.356 248.045 205.218 247.993C195.304 244.398 190.134 245.171 187.62 246.464C186.365 246.998 185.366 248.002 184.838 249.262C184.766 249.502 184.616 249.711 184.413 249.857C184.21 250.002 183.964 250.077 183.715 250.068Z" fill="#263238"/>
<path d="M148.225 245.927C135.113 247.095 122.36 250.849 110.7 256.973C117.169 255.746 140.323 284.466 146.273 306.608C157.259 302.534 170.064 299.754 183.715 297.578C175.444 274.756 160.318 248.892 148.225 245.927Z" fill="#F48F56"/>
<path opacity="0.6" d="M148.225 245.927C135.113 247.095 122.36 250.849 110.7 256.973C117.169 255.746 140.323 284.466 146.273 306.608C157.259 302.534 170.064 299.754 183.715 297.578C175.444 274.756 160.318 248.892 148.225 245.927Z" fill="white"/>
<path d="M148.225 245.927C133.912 244.306 110.675 256.318 110.675 256.318C106.56 258.947 107.675 263.878 109.92 265.969C112.074 262.87 136.091 254.806 145.116 253.722C140.633 249.556 144.806 246.498 148.225 245.927Z" fill="#F48F56"/>
<path opacity="0.2" d="M148.225 245.927C133.912 244.306 110.675 256.318 110.675 256.318C106.56 258.947 107.675 263.878 109.92 265.969C112.074 262.87 136.091 254.806 145.116 253.722C140.633 249.556 144.806 246.498 148.225 245.927Z" fill="white"/>
<path d="M127.091 280.938C126.467 280.941 125.852 280.788 125.301 280.495C124.75 280.202 124.28 279.777 123.932 279.258C121.208 275.058 122.909 268.682 123.278 267.439C123.592 266.517 124.25 265.753 125.114 265.306C125.978 264.859 126.981 264.765 127.913 265.043C128.844 265.321 129.632 265.95 130.112 266.797C130.591 267.645 130.725 268.645 130.485 269.59C129.873 271.698 129.748 274.394 130.234 275.134C130.778 275.971 130.968 276.992 130.762 277.97C130.556 278.948 129.971 279.804 129.136 280.35C128.527 280.744 127.816 280.949 127.091 280.938Z" fill="#263238"/>
<path d="M114.245 116.248H101.557V110.511L114.245 95.3905H120.312V110.838H123.454V116.248H120.312V120.943H114.245V116.248ZM114.245 110.838V102.934L107.541 110.838H114.245Z" fill="#F48F56"/>
<path d="M125.625 108.284C125.625 103.513 126.482 100.173 128.197 98.2633C129.912 96.3537 132.524 95.3989 136.033 95.3989C137.456 95.3507 138.876 95.5642 140.223 96.0289C141.206 96.3836 142.107 96.9352 142.871 97.6501C143.512 98.2673 144.058 98.9781 144.488 99.7585C144.908 100.576 145.226 101.442 145.435 102.337C145.908 104.261 146.142 106.236 146.13 108.217C146.13 112.77 145.362 116.105 143.826 118.222C142.29 120.338 139.63 121.377 135.848 121.338C134.089 121.411 132.337 121.066 130.736 120.33C129.425 119.644 128.32 118.621 127.535 117.365C126.839 116.196 126.362 114.909 126.127 113.568C125.78 111.829 125.612 110.058 125.625 108.284ZM132.53 108.284C132.53 111.488 132.809 113.672 133.368 114.836C133.551 115.344 133.884 115.784 134.323 116.097C134.761 116.411 135.284 116.583 135.823 116.592C136.163 116.599 136.502 116.536 136.817 116.407C137.133 116.279 137.419 116.087 137.658 115.844C138.259 115.188 138.655 114.371 138.798 113.492C139.096 111.83 139.219 110.141 139.167 108.452C139.167 105.092 138.89 102.875 138.329 101.732C138.125 101.233 137.776 100.806 137.328 100.507C136.88 100.207 136.353 100.049 135.815 100.052C135.263 100.038 134.722 100.2 134.27 100.516C133.817 100.832 133.478 101.285 133.301 101.808C132.792 102.967 132.535 105.132 132.53 108.301V108.284Z" fill="#F48F56"/>
<path d="M148.971 108.284C148.971 103.513 149.829 100.173 151.544 98.2633C153.259 96.3537 155.871 95.3989 159.379 95.3989C160.803 95.3507 162.223 95.5642 163.569 96.0289C164.553 96.3836 165.453 96.9352 166.217 97.6501C166.862 98.265 167.407 98.9762 167.835 99.7585C168.255 100.576 168.573 101.442 168.782 102.337C169.258 104.261 169.494 106.236 169.486 108.217C169.486 112.77 168.715 116.105 167.173 118.222C165.631 120.338 162.98 121.377 159.22 121.338C157.461 121.411 155.709 121.066 154.108 120.33C152.798 119.646 151.695 118.622 150.915 117.365C150.213 116.198 149.732 114.911 149.499 113.568C149.144 111.83 148.967 110.059 148.971 108.284ZM155.876 108.284C155.876 111.488 156.156 113.672 156.714 114.836C156.898 115.344 157.231 115.784 157.669 116.097C158.108 116.411 158.631 116.583 159.17 116.592C159.51 116.599 159.848 116.536 160.164 116.407C160.479 116.279 160.766 116.087 161.005 115.844C161.605 115.187 162.004 114.371 162.153 113.492C162.447 111.829 162.57 110.141 162.522 108.452C162.522 105.092 162.242 102.852 161.684 101.732C161.478 101.234 161.129 100.809 160.681 100.51C160.234 100.21 159.708 100.051 159.17 100.052C158.619 100.039 158.078 100.202 157.626 100.518C157.174 100.833 156.834 101.285 156.656 101.808C156.131 102.967 155.868 105.132 155.868 108.301L155.876 108.284Z" fill="#F48F56"/>
<path d="M185.106 95.8273H205.855V101.178H192.866V105.176H204.916V110.3H192.866V115.248H206.232V120.935H185.106V95.8273Z" fill="white"/>
<path d="M210.506 120.943V95.8273H223.411C225.261 95.7617 227.111 95.9712 228.9 96.4489C230.147 96.8424 231.226 97.6477 231.958 98.7337C232.513 99.5314 232.898 100.435 233.088 101.388C233.279 102.341 233.272 103.324 233.068 104.274C232.863 105.224 232.466 106.122 231.9 106.912C231.335 107.702 230.613 108.366 229.78 108.864C228.931 109.335 228.015 109.672 227.064 109.864C227.777 110.069 228.455 110.38 229.076 110.788C229.54 111.176 229.957 111.619 230.316 112.107C230.73 112.59 231.095 113.113 231.405 113.669L235.151 120.943H226.402L222.263 113.266C221.936 112.531 221.46 111.872 220.863 111.334C220.307 110.948 219.645 110.746 218.969 110.754H218.282V120.943H210.506ZM218.282 106.008H221.55C222.241 105.953 222.925 105.838 223.595 105.664C224.097 105.566 224.545 105.285 224.852 104.874C225.228 104.379 225.408 103.761 225.357 103.141C225.306 102.521 225.028 101.941 224.576 101.514C223.706 100.994 222.692 100.767 221.685 100.867H218.282V106.008Z" fill="white"/>
<path d="M237.732 120.943V95.8273H250.637C252.488 95.761 254.338 95.9705 256.126 96.4489C257.374 96.8423 258.452 97.6476 259.185 98.7337C259.737 99.5316 260.121 100.435 260.311 101.387C260.501 102.339 260.494 103.321 260.291 104.27C260.087 105.22 259.691 106.118 259.128 106.908C258.564 107.698 257.845 108.364 257.015 108.864C256.164 109.336 255.245 109.673 254.291 109.864C255.627 110.153 256.796 110.959 257.543 112.106C257.957 112.59 258.322 113.113 258.632 113.669L262.378 120.943H253.629L249.489 113.266C249.163 112.531 248.686 111.872 248.09 111.334C247.534 110.948 246.872 110.746 246.196 110.754H245.534V120.943H237.732ZM245.534 106.008H248.802C249.493 105.953 250.177 105.838 250.847 105.664C251.351 105.57 251.8 105.288 252.104 104.874C252.48 104.379 252.66 103.761 252.609 103.141C252.558 102.52 252.279 101.941 251.827 101.514C250.959 100.991 249.944 100.764 248.936 100.867H245.534V106.008Z" fill="white"/>
<path d="M263.283 108.402C263.283 104.303 264.423 101.111 266.702 98.8261C268.981 96.5413 272.154 95.3989 276.222 95.3989C280.395 95.3989 283.61 96.5189 285.867 98.7589C288.124 100.999 289.241 104.143 289.219 108.192C289.333 110.696 288.836 113.191 287.769 115.458C286.811 117.315 285.323 118.845 283.495 119.851C281.341 120.933 278.947 121.445 276.54 121.338C274.13 121.42 271.733 120.958 269.526 119.986C267.629 119.043 266.058 117.551 265.018 115.702C263.798 113.468 263.199 110.947 263.283 108.402ZM271.026 108.402C271.026 110.939 271.498 112.762 272.442 113.871C272.939 114.391 273.536 114.806 274.197 115.089C274.858 115.373 275.57 115.519 276.289 115.519C277.008 115.519 277.719 115.373 278.38 115.089C279.041 114.806 279.638 114.391 280.135 113.871C281.046 112.784 281.504 110.824 281.509 107.991C281.509 105.633 281.032 103.905 280.076 102.808C279.593 102.265 278.994 101.837 278.324 101.555C277.654 101.273 276.93 101.144 276.205 101.178C275.493 101.154 274.785 101.292 274.134 101.583C273.483 101.874 272.908 102.31 272.451 102.858C271.512 104.043 271.026 105.882 271.026 108.436V108.402Z" fill="white"/>
<path d="M293.526 120.943V95.8273H306.423C308.273 95.761 310.123 95.9705 311.912 96.4489C313.161 96.8399 314.24 97.6458 314.971 98.7337C315.775 99.9329 316.182 101.355 316.135 102.799C316.17 104.062 315.863 105.31 315.247 106.411C314.652 107.424 313.81 108.268 312.8 108.864C311.952 109.335 311.036 109.672 310.085 109.864C310.798 110.069 311.476 110.38 312.096 110.788C312.559 111.178 312.975 111.62 313.337 112.106C313.749 112.589 314.111 113.113 314.418 113.669L318.172 120.943H309.423L305.283 113.266C304.954 112.533 304.477 111.875 303.884 111.334C303.325 110.948 302.66 110.746 301.982 110.754H301.303V120.943H293.526ZM301.303 106.008H304.563C305.256 105.953 305.943 105.838 306.616 105.664C307.118 105.566 307.566 105.284 307.873 104.874C308.196 104.46 308.367 103.947 308.359 103.421C308.38 103.071 308.321 102.72 308.187 102.396C308.054 102.071 307.849 101.781 307.588 101.548C306.719 101.025 305.705 100.798 304.697 100.901H301.303V106.008Z" fill="white"/>
<path d="M135.999 81.8583V63.1599H143.005C144.174 63.1155 145.34 63.3098 146.432 63.7311C147.273 64.0875 147.982 64.6984 148.46 65.4783C148.933 66.2153 149.189 67.0715 149.198 67.9479C149.199 68.7481 148.972 69.5321 148.544 70.2075C148.059 70.9398 147.38 71.5217 146.583 71.8875C147.611 72.1486 148.526 72.7384 149.189 73.5675C149.798 74.3833 150.116 75.3799 150.094 76.3983C150.102 77.2451 149.913 78.0821 149.541 78.8427C149.231 79.5255 148.762 80.1244 148.175 80.5899C147.562 81.031 146.867 81.3451 146.13 81.5139C145.144 81.7403 144.134 81.8447 143.122 81.8247L135.999 81.8583ZM138.513 71.0055H142.552C143.343 71.0399 144.136 70.9664 144.907 70.7871C145.468 70.6447 145.966 70.3197 146.323 69.8631C146.655 69.3831 146.822 68.8085 146.801 68.2251C146.824 67.6331 146.669 67.0479 146.357 66.5451C146.067 66.0733 145.613 65.726 145.083 65.5707C144.152 65.3558 143.196 65.2682 142.242 65.3103H138.513V71.0055ZM138.513 79.6491H143.164C143.724 79.6643 144.284 79.6363 144.84 79.5651C145.343 79.4866 145.826 79.3127 146.265 79.0527C146.666 78.7946 146.992 78.4354 147.211 78.0111C147.464 77.5237 147.591 76.9809 147.58 76.4319C147.597 75.7855 147.409 75.1505 147.044 74.6175C146.689 74.0952 146.165 73.7122 145.561 73.5339C144.671 73.2893 143.75 73.1816 142.829 73.2147H138.513V79.6491Z" fill="white"/>
<path d="M162.036 80.1781C161.308 80.8236 160.478 81.3431 159.58 81.7153C158.776 82.0131 157.924 82.1639 157.066 82.1605C155.83 82.2444 154.607 81.854 153.647 81.0685C153.256 80.7198 152.946 80.2893 152.739 79.8074C152.532 79.3256 152.433 78.8041 152.449 78.2797C152.443 77.6635 152.587 77.0552 152.869 76.5077C153.151 75.9601 153.562 75.4899 154.066 75.1381C154.578 74.792 155.145 74.5363 155.742 74.3821C156.413 74.2242 157.093 74.1092 157.779 74.0377C159.164 73.9108 160.534 73.6463 161.868 73.2481C161.868 72.9289 161.868 72.7357 161.868 72.6433C161.907 72.2872 161.869 71.9269 161.758 71.5865C161.646 71.2461 161.464 70.9334 161.223 70.6693C160.476 70.0967 159.546 69.8187 158.608 69.8881C157.773 69.8282 156.939 70.0276 156.22 70.4593C155.601 70.9792 155.181 71.6973 155.03 72.4921L152.792 72.1897C152.942 71.3436 153.287 70.5441 153.798 69.8545C154.345 69.2134 155.063 68.7415 155.868 68.4937C156.858 68.1579 157.898 67.9959 158.943 68.0149C159.89 67.9872 160.834 68.1236 161.734 68.4181C162.345 68.6188 162.893 68.9748 163.326 69.4513C163.685 69.9074 163.929 70.4432 164.038 71.0137C164.135 71.7148 164.175 72.4228 164.156 73.1305V76.1965C164.118 77.5477 164.166 78.9 164.298 80.2453C164.399 80.8171 164.594 81.368 164.876 81.8749H162.488C162.236 81.3413 162.083 80.7664 162.036 80.1781ZM161.843 75.0457C160.63 75.4685 159.374 75.7504 158.097 75.8857C157.414 75.9588 156.742 76.111 156.094 76.3393C155.728 76.497 155.414 76.7564 155.189 77.0869C154.929 77.4981 154.824 77.9892 154.893 78.4714C154.962 78.9535 155.201 79.395 155.566 79.7161C156.149 80.16 156.872 80.3778 157.603 80.3293C158.425 80.3413 159.237 80.1386 159.957 79.7413C160.616 79.3838 161.146 78.8286 161.474 78.1537C161.756 77.4207 161.882 76.6367 161.843 75.8521V75.0457Z" fill="white"/>
<path d="M176.491 81.858V80.178C176.1 80.8249 175.541 81.3538 174.874 81.7086C174.207 82.0635 173.457 82.2312 172.703 82.194C171.647 82.1976 170.614 81.8846 169.737 81.2952C168.809 80.6751 168.079 79.8003 167.634 78.7752C167.115 77.6197 166.86 76.3628 166.888 75.096C166.872 73.835 167.099 72.5827 167.558 71.4084C167.957 70.3781 168.666 69.4975 169.586 68.8884C170.487 68.3167 171.537 68.0245 172.603 68.0484C173.361 68.0326 174.11 68.2088 174.782 68.5608C175.397 68.8876 175.93 69.3501 176.34 69.9132V63.1932H178.62V81.858H176.491ZM169.276 75.138C169.172 76.5237 169.561 77.9016 170.374 79.0272C170.677 79.4256 171.068 79.7492 171.515 79.9733C171.962 80.1975 172.455 80.3164 172.955 80.3208C173.446 80.3226 173.932 80.2124 174.375 79.9985C174.817 79.7846 175.206 79.4726 175.511 79.086C176.292 77.9982 176.664 76.6677 176.558 75.3312C176.675 73.8862 176.3 72.4441 175.494 71.2404C175.184 70.8336 174.785 70.5044 174.327 70.2784C173.869 70.0525 173.365 69.9361 172.854 69.9384C172.368 69.9419 171.889 70.0564 171.453 70.2733C171.018 70.4902 170.637 70.8037 170.34 71.19C169.551 72.3478 169.176 73.7393 169.276 75.138Z" fill="white"/>
<path d="M189.799 81.8581V63.1597H198.078C199.363 63.1039 200.648 63.2745 201.874 63.6637C202.746 64.0076 203.478 64.6346 203.952 65.4445C204.472 66.293 204.742 67.2713 204.732 68.2669C204.747 68.8844 204.641 69.499 204.42 70.0755C204.198 70.652 203.866 71.1792 203.441 71.6269C202.347 72.6475 200.935 73.2587 199.444 73.3573C199.99 73.5994 200.501 73.916 200.961 74.2981C201.75 75.0469 202.439 75.8937 203.014 76.8181L206.257 81.8581H203.148L200.676 77.9689C199.955 76.8433 199.36 75.9865 198.899 75.3901C198.549 74.9085 198.125 74.486 197.642 74.1385C197.296 73.9089 196.913 73.7385 196.511 73.6345C196.056 73.5645 195.596 73.5364 195.137 73.5505H192.271V81.8581H189.799ZM192.271 71.4001H197.584C198.479 71.4358 199.375 71.3194 200.232 71.0557C200.828 70.8508 201.34 70.4553 201.69 69.9301C202.014 69.4302 202.186 68.8463 202.184 68.2501C202.195 67.8372 202.114 67.4271 201.947 67.0494C201.781 66.6717 201.532 66.3358 201.221 66.0661C200.343 65.4285 199.266 65.1302 198.187 65.2261H192.271V71.4001Z" fill="white"/>
<path d="M217.57 77.5153L219.941 77.8009C219.638 79.0767 218.911 80.2112 217.88 81.0181C216.576 81.8723 215.026 82.269 213.474 82.1459C211.921 82.0227 210.453 81.3868 209.299 80.3377C208.073 78.917 207.45 77.0718 207.564 75.1969C207.443 73.2657 208.074 71.3627 209.324 69.8881C209.904 69.2637 210.612 68.7717 211.398 68.4456C212.185 68.1195 213.032 67.9669 213.883 67.9981C214.711 67.9704 215.535 68.121 216.299 68.4398C217.064 68.7586 217.752 69.2382 218.316 69.8461C219.534 71.297 220.149 73.1615 220.034 75.0541C220.034 75.1885 220.034 75.3985 220.034 75.6673H209.978C209.956 76.9191 210.381 78.1375 211.176 79.1029C211.536 79.4904 211.974 79.7971 212.46 80.0027C212.947 80.2083 213.472 80.3082 214 80.2957C214.771 80.3195 215.529 80.0861 216.154 79.6321C216.821 79.0796 217.313 78.3439 217.57 77.5153ZM210.028 73.7941H217.57C217.551 72.8755 217.26 71.9833 216.732 71.2321C216.394 70.8049 215.961 70.4626 215.468 70.2322C214.975 70.0018 214.435 69.8898 213.891 69.9049C213.402 69.889 212.914 69.9723 212.458 70.1498C212.001 70.3274 211.585 70.5955 211.235 70.9381C210.49 71.7035 210.064 72.7249 210.045 73.7941H210.028Z" fill="white"/>
<path d="M231.439 87.0745V80.4385C231.046 80.9672 230.535 81.3959 229.947 81.6901C229.315 82.0164 228.614 82.1863 227.902 82.1857C227.112 82.1872 226.331 82.015 225.614 81.6812C224.898 81.3474 224.263 80.8601 223.754 80.2537C222.524 78.7787 221.901 76.8894 222.011 74.9701C221.993 73.713 222.236 72.4658 222.724 71.3077C223.138 70.2944 223.855 69.4346 224.777 68.8465C225.658 68.2919 226.678 68.0005 227.718 68.0065C228.501 67.9835 229.277 68.164 229.97 68.5305C230.663 68.897 231.25 69.437 231.673 70.0981V68.3173H233.735V87.0745H231.439ZM224.374 75.0625C224.271 76.4573 224.656 77.8447 225.464 78.9853C225.774 79.3896 226.173 79.7178 226.629 79.9449C227.085 80.1719 227.586 80.2919 228.095 80.2957C228.581 80.292 229.059 80.1782 229.494 79.9629C229.93 79.7476 230.311 79.4364 230.609 79.0525C231.402 77.9566 231.779 76.6135 231.673 75.2641C231.775 73.8185 231.382 72.3814 230.559 71.1901C230.255 70.776 229.861 70.4372 229.406 70.1998C228.951 69.9625 228.448 69.8328 227.936 69.8209C227.447 69.8235 226.965 69.9402 226.529 70.1618C226.092 70.3834 225.713 70.7038 225.422 71.0977C224.633 72.2613 224.263 73.6599 224.374 75.0625Z" fill="white"/>
<path d="M246.188 81.8581V79.8841C245.732 80.6066 245.097 81.1984 244.345 81.6017C243.593 82.0051 242.75 82.2063 241.897 82.1857C241.127 82.1924 240.364 82.035 239.66 81.7237C239.056 81.4833 238.526 81.0861 238.126 80.5729C237.769 80.072 237.526 79.4984 237.414 78.8929C237.301 78.1819 237.253 77.4621 237.271 76.7425V68.3425H239.567V75.9025C239.542 76.7143 239.589 77.5268 239.71 78.3301C239.829 78.9025 240.154 79.4109 240.623 79.7581C241.131 80.1126 241.74 80.2924 242.358 80.2705C243.039 80.2721 243.708 80.0893 244.294 79.7413C244.872 79.4189 245.324 78.9096 245.576 78.2965C245.866 77.4459 245.994 76.5484 245.953 75.6505V68.3173H248.241V81.8581H246.188Z" fill="white"/>
<path d="M261.096 77.5153L263.467 77.8009C263.157 79.0777 262.424 80.2116 261.389 81.0181C260.085 81.8723 258.535 82.269 256.983 82.1459C255.43 82.0227 253.961 81.3868 252.808 80.3377C251.582 78.917 250.959 77.0718 251.073 75.1969C250.953 73.2673 251.581 71.3657 252.825 69.8881C253.407 69.2643 254.116 68.7729 254.904 68.4469C255.692 68.1209 256.54 67.9678 257.392 67.9981C258.219 67.9704 259.044 68.121 259.808 68.4398C260.573 68.7586 261.261 69.2382 261.825 69.8461C263.043 71.297 263.658 73.1615 263.543 75.0541C263.543 75.1885 263.543 75.3985 263.543 75.6673H253.487C253.484 76.9225 253.933 78.1366 254.752 79.0861C255.111 79.4745 255.549 79.7818 256.036 79.9874C256.523 80.1931 257.048 80.2925 257.576 80.2789C258.347 80.3027 259.105 80.0693 259.73 79.6153C260.376 79.0606 260.85 78.3318 261.096 77.5153ZM253.554 73.7941H261.096C261.077 72.8755 260.785 71.9833 260.258 71.2321C259.919 70.8059 259.486 70.4643 258.993 70.234C258.5 70.0037 257.96 69.8911 257.417 69.9049C256.926 69.8878 256.437 69.9706 255.979 70.1482C255.521 70.3257 255.104 70.5944 254.752 70.9381C254.01 71.7048 253.588 72.7261 253.57 73.7941H253.554Z" fill="white"/>
<path d="M265.428 77.8345L267.691 77.4733C267.767 78.2807 268.148 79.0285 268.755 79.5649C269.457 80.0889 270.32 80.3477 271.194 80.2957C272.027 80.36 272.857 80.1313 273.54 79.6489C273.774 79.4724 273.965 79.2442 274.097 78.982C274.229 78.7198 274.3 78.4306 274.303 78.1369C274.307 77.8917 274.247 77.6496 274.13 77.4346C274.012 77.2195 273.841 77.0389 273.632 76.9105C272.884 76.5572 272.096 76.295 271.286 76.1293C270.091 75.867 268.921 75.4987 267.791 75.0289C267.194 74.7617 266.687 74.325 266.334 73.7727C265.981 73.2204 265.798 72.5767 265.805 71.9209C265.802 71.3345 265.946 70.7566 266.224 70.2409C266.488 69.7343 266.863 69.2948 267.322 68.9557C267.768 68.6534 268.261 68.4264 268.78 68.2837C269.426 68.1017 270.095 68.0112 270.766 68.0149C271.716 67.9963 272.661 68.15 273.557 68.4685C274.259 68.7016 274.877 69.1369 275.333 69.7201C275.773 70.3443 276.06 71.0638 276.171 71.8201L273.925 72.1225C273.897 71.7972 273.803 71.4809 273.651 71.1923C273.498 70.9038 273.29 70.6488 273.037 70.4425C272.433 70.0197 271.703 69.8153 270.967 69.8629C270.18 69.7931 269.391 69.9755 268.713 70.3837C268.512 70.5199 268.346 70.7022 268.23 70.9155C268.113 71.1288 268.049 71.3669 268.043 71.6101C268.034 71.9138 268.132 72.211 268.319 72.4501C268.554 72.7284 268.857 72.9398 269.199 73.0633C269.425 73.1473 270.104 73.3405 271.227 73.6429C272.379 73.9288 273.512 74.285 274.621 74.7097C275.227 74.9624 275.75 75.3817 276.129 75.9193C276.51 76.502 276.7 77.1889 276.674 77.8849C276.673 78.6571 276.442 79.4116 276.012 80.0521C275.52 80.7634 274.829 81.3129 274.026 81.6313C273.125 82.0129 272.155 82.2018 271.177 82.1857C269.751 82.2817 268.334 81.8941 267.154 81.0853C266.19 80.2587 265.574 79.0975 265.428 77.8345Z" fill="white"/>
<path d="M284.392 79.8253L284.727 81.8497C284.158 81.9816 283.577 82.052 282.993 82.0597C282.323 82.0974 281.656 81.9584 281.057 81.6565C280.629 81.4282 280.287 81.0652 280.085 80.6233C279.846 79.74 279.752 78.8235 279.808 77.9101V70.0981H278.132V68.3173H279.808V64.9573L282.088 63.5797V68.3173H284.392V70.0981H282.088V78.0277C282.063 78.4512 282.103 78.876 282.205 79.2877C282.288 79.4747 282.426 79.6325 282.599 79.7413C282.843 79.8626 283.115 79.9176 283.386 79.9009C283.723 79.8982 284.059 79.8729 284.392 79.8253Z" fill="white"/>
</svg>
