<svg width="338" height="338" viewBox="0 0 338 338" fill="none" xmlns="http://www.w3.org/2000/svg">
<path d="M169 289.031C241.388 289.031 300.07 285.605 300.07 281.378C300.07 277.152 241.388 273.726 169 273.726C96.6122 273.726 37.9304 277.152 37.9304 281.378C37.9304 285.605 96.6122 289.031 169 289.031Z" fill="#F5F5F5"/>
<path d="M94.5251 281.378H172.326C173.613 281.381 174.887 281.125 176.073 280.626C177.259 280.127 178.333 279.395 179.232 278.473C180.13 277.551 180.834 276.459 181.303 275.26C181.771 274.062 181.994 272.782 181.959 271.495L177.281 85.2166C177.195 82.5782 176.092 80.0754 174.201 78.2329C172.311 76.3904 169.781 75.3513 167.141 75.3334H89.3537C88.0668 75.3312 86.7925 75.5871 85.6064 76.0861C84.4202 76.5851 83.3462 77.3171 82.4479 78.2386C81.5497 79.1602 80.8455 80.2526 80.3771 81.4512C79.9086 82.6498 79.6854 83.9302 79.7207 85.2166L84.3986 271.495C84.4857 274.131 85.588 276.63 87.4751 278.472C89.3623 280.314 91.8882 281.355 94.5251 281.378Z" fill="#263238"/>
<path d="M81.6608 137.728H83.0128C83.2548 137.728 83.4943 137.68 83.7172 137.586C83.9402 137.492 84.142 137.354 84.3109 137.181C84.4797 137.008 84.6122 136.802 84.7004 136.577C84.7886 136.352 84.8308 136.111 84.8245 135.869L84.2228 111.919C84.2055 111.423 83.9976 110.953 83.6425 110.607C83.2874 110.26 82.8125 110.064 82.3165 110.06H80.9645C80.7229 110.059 80.4837 110.108 80.2611 110.202C80.0385 110.296 79.8371 110.434 79.6687 110.607C79.5004 110.781 79.3686 110.986 79.2812 111.211C79.1937 111.436 79.1524 111.677 79.1596 111.919L79.768 135.876C79.7837 136.369 79.9894 136.837 80.3421 137.183C80.6948 137.528 81.1673 137.723 81.6608 137.728Z" fill="#263238"/>
<path d="M179.241 140.777C179.569 140.778 179.894 140.713 180.196 140.586C180.498 140.46 180.772 140.273 181.001 140.039C181.229 139.804 181.409 139.526 181.528 139.221C181.648 138.916 181.704 138.59 181.695 138.262L181.019 112.574C180.998 111.903 180.718 111.267 180.238 110.798C179.758 110.329 179.115 110.064 178.444 110.06C178.116 110.059 177.791 110.123 177.489 110.25C177.187 110.377 176.913 110.563 176.685 110.798C176.456 111.032 176.276 111.31 176.157 111.615C176.038 111.921 175.981 112.247 175.99 112.574L176.666 138.262C176.687 138.933 176.967 139.57 177.447 140.039C177.927 140.507 178.57 140.772 179.241 140.777Z" fill="#263238"/>
<path d="M180.262 181.391C180.59 181.392 180.914 181.327 181.216 181.2C181.517 181.074 181.791 180.887 182.019 180.653C182.247 180.418 182.426 180.14 182.545 179.835C182.663 179.53 182.719 179.204 182.709 178.876L182.067 153.188C182.044 152.518 181.764 151.882 181.284 151.414C180.804 150.945 180.162 150.68 179.492 150.674C179.164 150.673 178.839 150.737 178.537 150.864C178.235 150.991 177.961 151.177 177.732 151.412C177.504 151.646 177.324 151.924 177.205 152.23C177.085 152.535 177.029 152.861 177.038 153.188L177.68 178.876C177.703 179.548 177.984 180.184 178.465 180.653C178.947 181.122 179.59 181.386 180.262 181.391Z" fill="#263238"/>
<path d="M96.1745 281.378H173.975C175.262 281.381 176.536 281.125 177.723 280.626C178.909 280.127 179.983 279.395 180.881 278.473C181.779 277.551 182.484 276.459 182.952 275.26C183.42 274.062 183.644 272.782 183.608 271.495L178.93 85.2166C178.845 82.5782 177.741 80.0754 175.851 78.2329C173.96 76.3904 171.43 75.3513 168.79 75.3334H91.0031C89.7162 75.3312 88.442 75.5871 87.2558 76.0861C86.0696 76.5851 84.9956 77.3171 84.0974 78.2386C83.1992 79.1602 82.495 80.2526 82.0265 81.4512C81.5581 82.6498 81.3349 83.9302 81.3701 85.2166L86.048 271.495C86.1335 274.131 87.2353 276.632 89.1228 278.474C91.0103 280.316 93.5372 281.357 96.1745 281.378Z" fill="#F48F56"/>
<path opacity="0.8" d="M87.9679 270.123H181.567C181.706 270.123 181.843 270.095 181.97 270.04C182.098 269.986 182.213 269.906 182.308 269.805C182.404 269.704 182.478 269.585 182.526 269.455C182.574 269.325 182.595 269.187 182.588 269.048L178.038 87.88C178.033 87.6146 177.924 87.3619 177.734 87.1761C177.544 86.9903 177.29 86.8862 177.024 86.8863H83.4184C83.2821 86.8862 83.1471 86.9135 83.0214 86.9665C82.8958 87.0195 82.782 87.0971 82.6869 87.1947C82.5917 87.2924 82.5171 87.4082 82.4674 87.5351C82.4178 87.6621 82.394 87.7978 82.3976 87.9341L86.9471 269.102C86.9471 269.373 87.0547 269.632 87.2461 269.824C87.4375 270.015 87.6972 270.123 87.9679 270.123Z" fill="white"/>
<mask id="mask0_5_21" style="mask-type:luminance" maskUnits="userSpaceOnUse" x="82" y="86" width="101" height="185">
<path d="M87.9679 270.123H181.567C181.706 270.123 181.843 270.095 181.97 270.04C182.098 269.986 182.213 269.906 182.308 269.805C182.404 269.704 182.478 269.585 182.526 269.455C182.574 269.325 182.595 269.187 182.588 269.048L178.038 87.88C178.033 87.6146 177.924 87.3619 177.734 87.1761C177.544 86.9903 177.29 86.8862 177.024 86.8863H83.4184C83.2821 86.8862 83.1471 86.9135 83.0214 86.9665C82.8958 87.0195 82.782 87.0971 82.6869 87.1947C82.5917 87.2924 82.5171 87.4082 82.4674 87.5351C82.4178 87.6621 82.394 87.7978 82.3976 87.9341L86.9471 269.102C86.9471 269.373 87.0547 269.632 87.2461 269.824C87.4375 270.015 87.6972 270.123 87.9679 270.123Z" fill="white"/>
</mask>
<g mask="url(#mask0_5_21)">
<path d="M118.117 102.603C113.859 103.651 110.776 118.395 117.266 128.636C123.755 138.877 139.783 136.917 141.46 118.496C143.312 97.9659 125.56 90.7124 118.117 102.603Z" fill="#263238"/>
<path d="M137.377 133.713C137.804 135.766 138.334 137.797 138.965 139.797C139.587 141.777 140.317 143.731 141.115 145.664C141.918 147.616 142.853 149.511 143.914 151.336C144.448 152.255 145.029 153.161 145.644 154.04C145.948 154.486 146.273 154.926 146.611 155.392C146.773 155.608 146.956 155.818 147.125 156.034L147.388 156.352C147.559 156.561 147.747 156.755 147.949 156.933C148.409 157.332 148.948 157.629 149.531 157.805C150.061 157.964 150.615 158.026 151.167 157.988C151.977 157.917 152.765 157.688 153.486 157.312C154.565 156.767 155.569 156.086 156.474 155.284C158.076 153.891 159.563 152.372 160.922 150.741C163.541 147.6 165.927 144.272 168.06 140.784L165.748 139.141C164.471 140.628 163.166 142.136 161.834 143.582C160.503 145.029 159.13 146.476 157.778 147.828C156.457 149.172 155.038 150.417 153.533 151.552C152.9 152.04 152.207 152.444 151.471 152.756C151.296 152.838 151.104 152.882 150.91 152.884C150.91 152.884 150.951 152.884 151.059 152.884C151.163 152.916 151.261 152.964 151.35 153.026C151.359 153.041 151.374 153.053 151.39 153.06C151.39 153.06 151.424 153.107 151.39 153.06L151.187 152.783C151.059 152.6 150.917 152.431 150.795 152.235C150.532 151.863 150.282 151.485 150.038 151.093C149.551 150.315 149.092 149.511 148.686 148.679C147.828 147.016 147.071 145.299 146.361 143.501C145.651 141.703 145.056 139.898 144.495 138.059C143.934 136.221 143.42 134.308 143.001 132.543L137.377 133.713Z" fill="#FF8B7B"/>
<path d="M133.24 134.984C133.774 136.707 135.7 139.837 137.221 142.163C138.33 143.833 139.215 145.083 139.215 145.083L140.175 144.495L148.105 139.567C146.834 135.099 145.103 130.285 139.777 128.751C136.43 127.832 132.286 131.908 133.24 134.984Z" fill="#F48F56"/>
<path opacity="0.3" d="M137.228 142.163C138.337 143.833 139.222 145.083 139.222 145.083L140.182 144.495C139.79 142.71 139.046 139.925 137.89 138.783C137.432 139.849 137.206 141.002 137.228 142.163Z" fill="black"/>
<path d="M165.187 140.371L164.829 135.274L170.589 136.322C170.589 136.322 169.108 140.209 167.317 141.73L165.187 140.371Z" fill="#FF8B7B"/>
<path d="M166.222 131.502L170.352 133.077L170.589 136.322L164.829 135.274L166.222 131.502Z" fill="#FF8B7B"/>
<path d="M112.622 275.97L118.111 276.498L121.768 263.62L116.279 263.092L112.622 275.97Z" fill="#FF8B7B"/>
<path d="M72.3996 265.127L77.4764 267.486L84.5744 256.481L79.4976 254.122L72.3996 265.127Z" fill="#FF8B7B"/>
<path d="M78.9974 265.776L73.4339 262.849C73.3392 262.796 73.228 262.779 73.1219 262.803C73.0157 262.827 72.9222 262.889 72.8593 262.978L69.9052 267.034C69.8337 267.138 69.7854 267.257 69.7633 267.382C69.7413 267.506 69.7461 267.635 69.7775 267.757C69.8088 267.88 69.866 267.995 69.9451 268.094C70.0242 268.193 70.1235 268.274 70.2364 268.331C72.19 269.318 73.1905 269.683 75.6444 270.988C77.1519 271.786 80.3764 273.76 82.445 274.855C84.5135 275.95 85.7168 273.956 84.9462 273.307C81.5053 270.427 80.4034 268.291 79.6734 266.506C79.5419 266.19 79.3023 265.931 78.9974 265.776Z" fill="#263238"/>
<path opacity="0.2" d="M121.768 263.626L119.882 270.258H114.237L116.272 263.092L121.768 263.626Z" fill="black"/>
<path opacity="0.2" d="M79.4908 254.129L84.5744 256.488L80.9172 262.16L75.8337 259.8L79.4908 254.129Z" fill="black"/>
<path d="M110.364 158.279L132.78 162.098C143.596 130.617 141.243 129.346 141.243 129.346C141.243 129.346 137.539 127.859 133.747 126.723C133.172 126.547 132.591 126.385 132.023 126.229C128.675 125.41 125.273 124.829 121.842 124.492C121.335 124.425 120.828 124.377 120.328 124.33C117.592 124.097 114.845 124.027 112.101 124.12C112.344 128.237 112.5 131.732 112.568 134.774C112.655 138.742 112.568 141.94 112.426 144.718C112.099 149.286 111.409 153.82 110.364 158.279Z" fill="#F48F56"/>
<path d="M121.295 126.094C120.979 125.985 120.703 125.786 120.499 125.522C120.294 125.258 120.172 124.94 120.145 124.607C120.135 124.508 120.135 124.409 120.145 124.31H120.321C120.821 124.364 121.328 124.411 121.835 124.479L123.512 124.681C125.973 124.999 128.17 125.317 130.373 125.817C130.914 125.939 131.462 126.067 132.016 126.223C132.57 126.378 133.098 126.513 133.638 126.682V126.75C133.602 126.855 133.556 126.957 133.503 127.054C133.469 127.108 133.429 127.149 133.395 127.196C133.643 127.405 133.825 127.68 133.921 127.989C134.017 128.298 134.022 128.628 133.936 128.94C133.861 129.2 133.725 129.438 133.541 129.635C133.357 129.832 133.128 129.983 132.875 130.076C132.953 130.31 132.98 130.558 132.952 130.803C132.925 131.048 132.843 131.284 132.714 131.494C132.585 131.705 132.412 131.884 132.206 132.02C132 132.155 131.767 132.244 131.523 132.28C131.553 132.522 131.532 132.768 131.459 133.001C131.387 133.234 131.266 133.449 131.103 133.632C130.812 133.962 130.401 134.164 129.961 134.193C129.927 134.196 129.893 134.196 129.86 134.193C129.866 134.603 129.724 135.001 129.461 135.315C129.385 135.397 129.303 135.473 129.217 135.545C129.13 135.606 129.035 135.66 128.94 135.714C128.842 135.767 128.738 135.808 128.629 135.835C128.521 135.863 128.41 135.881 128.298 135.89C128.077 135.905 127.854 135.877 127.643 135.807C127.433 135.736 127.238 135.625 127.071 135.479C126.903 135.334 126.766 135.157 126.667 134.958C126.568 134.759 126.509 134.543 126.493 134.321C126.479 134.113 126.507 133.904 126.574 133.706C126.446 133.752 126.312 133.78 126.175 133.787C125.925 133.81 125.672 133.774 125.437 133.682C125.203 133.591 124.993 133.446 124.823 133.26C124.603 133.029 124.453 132.742 124.39 132.429C124.326 132.117 124.352 131.793 124.465 131.496C124.153 131.569 123.827 131.552 123.525 131.445C123.223 131.338 122.958 131.147 122.762 130.894C122.562 130.633 122.441 130.321 122.414 129.994C122.386 129.667 122.453 129.339 122.606 129.048C122.253 129.08 121.899 129 121.595 128.819C121.29 128.639 121.05 128.366 120.91 128.041C120.769 127.716 120.734 127.355 120.811 127.009C120.887 126.663 121.071 126.35 121.335 126.115L121.295 126.094Z" fill="white"/>
<path opacity="0.3" d="M112.426 144.718C114.082 141.5 115.13 134.456 114.258 131.982L112.568 134.774C112.655 138.742 112.595 141.96 112.426 144.718Z" fill="black"/>
<path d="M124.607 117.779C124.276 120.558 123.505 123.37 121.835 124.492C121.835 124.492 120.483 127.02 128.136 134.186C134.321 128.345 132.016 126.229 132.016 126.229C128.514 124.736 128.859 122.302 130.536 118.428L127.832 116.813C127.603 116.535 127.298 116.331 126.954 116.226C126.61 116.122 126.242 116.121 125.898 116.224C125.553 116.327 125.247 116.53 125.018 116.807C124.788 117.083 124.645 117.422 124.607 117.779Z" fill="#FF8B7B"/>
<path opacity="0.2" d="M127.811 116.813C127.597 116.556 127.315 116.363 126.998 116.256C126.681 116.149 126.34 116.132 126.014 116.206C125.687 116.28 125.388 116.443 125.148 116.676C124.908 116.91 124.737 117.205 124.654 117.529C125.617 119.703 127.246 121.514 129.305 122.701C129.445 121.211 129.86 119.76 130.529 118.422L127.811 116.813Z" fill="black"/>
<path d="M120.646 108.836C121.802 114.244 122.173 116.596 125.378 118.976C130.177 122.586 136.599 119.976 137.093 114.305C137.532 109.194 135.565 101.163 129.866 99.7844C128.609 99.4703 127.291 99.4842 126.041 99.8246C124.79 100.165 123.647 100.821 122.722 101.729C121.797 102.637 121.12 103.767 120.757 105.012C120.393 106.256 120.355 107.573 120.646 108.836Z" fill="#FF8B7B"/>
<path d="M125.858 98.5743C122.991 98.7163 119.936 101.082 123.958 102.941C127.98 104.8 138.648 104.8 136.126 102.083C133.605 99.3652 129.941 98.3715 125.858 98.5743Z" fill="#263238"/>
<path d="M124.303 99.6086C125.952 101.224 126.567 112.777 119.436 112.669C112.304 112.561 118.672 101.19 124.303 99.6086Z" fill="#263238"/>
<path d="M120.166 114.156C120.576 115.15 121.364 115.94 122.356 116.353C123.674 116.887 124.492 115.745 124.262 114.42C124.053 113.223 123.12 111.499 121.727 111.526C121.424 111.539 121.128 111.627 120.868 111.783C120.607 111.939 120.389 112.157 120.234 112.418C120.079 112.679 119.991 112.975 119.98 113.278C119.968 113.582 120.032 113.884 120.166 114.156Z" fill="#FF8B7B"/>
<path d="M132.78 162.105C132.78 162.105 139.621 206.045 136.038 222.728C132.604 238.736 122.255 268.372 122.255 268.372L112.588 268.122C112.588 268.122 120.7 233.058 121.376 219.585C122.505 197.237 116.34 159.333 116.34 159.333L132.78 162.105Z" fill="#263238"/>
<path d="M122.856 268.838L111.675 268.534L112.365 264.864L124.479 265.486L122.856 268.838Z" fill="#F48F56"/>
<path opacity="0.3" d="M124.702 167.06L121.119 160.117L116.387 159.299C116.387 159.299 119.192 176.544 120.673 194.62C123.708 186.116 125.249 171.028 124.702 167.06Z" fill="black"/>
<path d="M127.872 161.334C127.872 161.334 119.503 197.899 112.534 218.686C106.903 235.478 83.7023 259.584 83.7023 259.584L76.388 255.893C76.388 255.893 93.0379 228.725 96.9519 217.327C109.478 180.823 101.441 167.053 110.337 158.279L127.872 161.334Z" fill="#263238"/>
<path d="M83.6415 261.849L75.0563 257.367L76.361 253.71L85.8452 259.016L83.6415 261.849Z" fill="#F48F56"/>
<path d="M110.249 156.906L108.897 158.738C108.789 158.88 108.951 159.07 109.208 159.117L132.719 163.126C132.922 163.166 133.104 163.092 133.138 162.97L133.686 160.996C133.726 160.861 133.571 160.712 133.348 160.672L110.641 156.832C110.575 156.81 110.504 156.806 110.435 156.819C110.367 156.832 110.303 156.862 110.249 156.906Z" fill="#F48F56"/>
<path opacity="0.4" d="M110.249 156.906L108.897 158.738C108.789 158.88 108.951 159.07 109.208 159.117L132.719 163.126C132.922 163.166 133.104 163.092 133.138 162.97L133.686 160.996C133.726 160.861 133.571 160.712 133.348 160.672L110.641 156.832C110.575 156.81 110.504 156.806 110.435 156.819C110.367 156.832 110.303 156.862 110.249 156.906Z" fill="white"/>
<path d="M112.892 159.962L112.284 159.86C112.162 159.86 112.081 159.759 112.101 159.685L112.831 157.129C112.831 157.048 112.973 157.008 113.095 157.028L113.703 157.129C113.825 157.129 113.906 157.231 113.879 157.305L113.149 159.867C113.102 159.942 112.987 159.982 112.892 159.962Z" fill="#263238"/>
<path d="M130.975 163.051L130.367 162.95C130.245 162.95 130.164 162.848 130.184 162.774L130.914 160.219C130.914 160.144 131.056 160.097 131.178 160.117L131.779 160.226C131.901 160.226 131.982 160.32 131.962 160.395L131.232 162.957C131.212 163.031 131.097 163.078 130.975 163.051Z" fill="#263238"/>
<path d="M121.917 161.51L121.315 161.402C121.193 161.402 121.112 161.307 121.132 161.233L121.863 158.671C121.863 158.596 121.998 158.556 122.119 158.576L122.728 158.677C122.849 158.677 122.931 158.779 122.91 158.853L122.18 161.409C122.16 161.483 122.038 161.564 121.917 161.51Z" fill="#263238"/>
<path d="M129.866 109.019C129.934 109.465 130.225 109.789 130.542 109.749C130.86 109.708 131.022 109.302 130.955 108.856C130.887 108.41 130.596 108.086 130.279 108.126C129.961 108.167 129.792 108.572 129.866 109.019Z" fill="#263238"/>
<path d="M134.916 108.261C134.984 108.708 135.274 109.032 135.592 108.991C135.91 108.951 136.072 108.552 136.004 108.106C135.937 107.66 135.646 107.329 135.328 107.376C135.011 107.423 134.848 107.815 134.916 108.261Z" fill="#263238"/>
<path d="M135.2 107.416L136.228 106.95C136.228 106.95 135.802 107.869 135.2 107.416Z" fill="#263238"/>
<path d="M133.551 109.201C134.104 110.162 134.786 111.042 135.579 111.817C135.375 112.013 135.131 112.163 134.863 112.255C134.596 112.347 134.312 112.38 134.031 112.351L133.551 109.201Z" fill="#FF5652"/>
<path d="M132.239 114.494C132.261 114.479 132.278 114.459 132.289 114.435C132.299 114.411 132.303 114.385 132.3 114.359C132.297 114.342 132.292 114.326 132.283 114.311C132.274 114.296 132.262 114.284 132.248 114.273C132.235 114.263 132.219 114.256 132.202 114.252C132.185 114.248 132.168 114.248 132.151 114.251C131.597 114.345 131.028 114.308 130.49 114.143C129.952 113.977 129.461 113.688 129.055 113.298C129.044 113.285 129.03 113.274 129.014 113.267C128.998 113.259 128.982 113.255 128.964 113.254C128.947 113.253 128.93 113.256 128.913 113.261C128.897 113.267 128.882 113.276 128.869 113.287C128.856 113.299 128.846 113.313 128.838 113.329C128.831 113.344 128.827 113.361 128.826 113.378C128.825 113.396 128.827 113.413 128.833 113.429C128.839 113.445 128.848 113.46 128.859 113.473C129.289 113.901 129.816 114.218 130.395 114.398C130.974 114.578 131.588 114.616 132.185 114.508L132.239 114.494Z" fill="#263238"/>
<path d="M128.203 107.579C128.243 107.556 128.275 107.523 128.298 107.484C128.449 107.187 128.668 106.93 128.937 106.734C129.206 106.538 129.517 106.408 129.846 106.355C129.916 106.35 129.981 106.317 130.027 106.264C130.072 106.21 130.095 106.141 130.089 106.071C130.084 106.001 130.051 105.936 129.998 105.891C129.945 105.845 129.875 105.822 129.806 105.828C129.388 105.884 128.99 106.04 128.646 106.284C128.302 106.528 128.023 106.851 127.832 107.227C127.814 107.257 127.803 107.291 127.799 107.326C127.795 107.361 127.798 107.396 127.808 107.43C127.818 107.463 127.835 107.494 127.858 107.521C127.881 107.548 127.908 107.57 127.94 107.585C127.98 107.608 128.026 107.619 128.072 107.617C128.119 107.616 128.164 107.603 128.203 107.579Z" fill="#263238"/>
<path d="M136.782 105.726V105.679C136.794 105.646 136.799 105.611 136.797 105.577C136.795 105.542 136.786 105.508 136.771 105.476C136.756 105.445 136.735 105.417 136.709 105.393C136.683 105.37 136.653 105.352 136.62 105.341C136.224 105.193 135.799 105.142 135.38 105.194C134.961 105.246 134.56 105.398 134.213 105.639C134.186 105.66 134.162 105.686 134.145 105.717C134.128 105.747 134.117 105.78 134.112 105.815C134.108 105.849 134.11 105.884 134.12 105.918C134.129 105.951 134.144 105.983 134.166 106.01C134.187 106.038 134.214 106.061 134.244 106.078C134.274 106.095 134.307 106.107 134.342 106.111C134.376 106.115 134.411 106.113 134.445 106.104C134.479 106.095 134.51 106.079 134.538 106.058C134.816 105.874 135.133 105.759 135.465 105.721C135.796 105.683 136.132 105.725 136.444 105.841C136.505 105.867 136.572 105.869 136.634 105.848C136.697 105.826 136.749 105.783 136.782 105.726Z" fill="#263238"/>
<path d="M109.553 129.711C108.775 130.482 108.126 131.191 107.457 131.955C106.788 132.719 106.159 133.469 105.537 134.247C104.298 135.815 103.133 137.44 102.042 139.121C100.94 140.809 99.947 142.566 99.0678 144.38C98.8312 144.826 98.6352 145.306 98.3918 145.732C98.1484 146.158 97.9727 146.658 97.7902 147.145C97.6076 147.632 97.4184 148.071 97.2291 148.605L96.9519 149.464L96.7559 150.322C96.3691 152.485 96.3531 154.698 96.7086 156.866C97.0317 158.881 97.527 160.864 98.189 162.794C98.8377 164.672 99.5823 166.516 100.42 168.317C101.262 170.106 102.201 171.848 103.232 173.536L105.733 172.184C105.057 170.494 104.381 168.716 103.786 166.952C103.182 165.202 102.67 163.422 102.252 161.618C101.839 159.888 101.554 158.13 101.4 156.359C101.35 155.51 101.35 154.659 101.4 153.81C101.451 153.022 101.569 152.24 101.752 151.471L101.9 150.937L102.09 150.444C102.238 150.079 102.448 149.646 102.624 149.247C102.799 148.848 103.009 148.443 103.218 148.044C103.428 147.645 103.617 147.246 103.847 146.854C104.712 145.279 105.72 143.765 106.734 142.251C107.748 140.736 108.883 139.283 110.046 137.863C110.614 137.147 111.209 136.444 111.804 135.748C112.399 135.051 113.041 134.362 113.602 133.767L109.553 129.711Z" fill="#FF8B7B"/>
<path d="M104.733 170.595L109.127 172.975L104.395 176.355C104.395 176.355 102.502 173.867 102.684 171.542L104.733 170.595Z" fill="#FF8B7B"/>
<path d="M111.047 177.511L107.045 179.383L104.368 176.382L109.133 172.975L111.047 177.511Z" fill="#FF8B7B"/>
<path d="M112.101 124.12C109.296 124.384 104.78 131.996 104.78 131.996L111.54 139.256C111.54 139.256 117.239 133.28 117.239 129.65C117.266 126.581 115.677 123.789 112.101 124.12Z" fill="#F48F56"/>
<path d="M130.15 108.16L131.178 107.687C131.178 107.687 130.752 108.626 130.15 108.16Z" fill="#263238"/>
<g opacity="0.2">
<path d="M141.689 58.8329L120.724 54.1084L67.6937 289.424L88.6579 294.148L141.689 58.8329Z" fill="white"/>
<path d="M177.023 65.0037L165.845 62.4847L112.815 297.8L123.993 300.319L177.023 65.0037Z" fill="white"/>
</g>
</g>
<path opacity="0.2" d="M129.677 81.12C129.691 81.5504 129.617 81.9791 129.462 82.3805C129.306 82.782 129.071 83.1479 128.77 83.4564C128.47 83.765 128.111 84.0098 127.714 84.1764C127.316 84.3429 126.89 84.4277 126.459 84.4256C125.576 84.4258 124.727 84.08 124.095 83.4621C123.463 82.8442 123.099 82.0035 123.079 81.12C123.067 80.6902 123.141 80.2622 123.297 79.8615C123.453 79.4609 123.688 79.0958 123.988 78.788C124.289 78.4801 124.648 78.2359 125.044 78.0698C125.441 77.9037 125.867 77.8191 126.297 77.8211C127.18 77.8209 128.027 78.1658 128.659 78.7822C129.29 79.3987 129.656 80.2377 129.677 81.12Z" fill="black"/>
<path opacity="0.2" d="M135.2 81.12C135.205 81.2837 135.178 81.4469 135.119 81.5997C135.06 81.7525 134.97 81.8918 134.856 82.0092C134.742 82.1266 134.605 82.2197 134.454 82.283C134.303 82.3463 134.14 82.3784 133.976 82.3774C133.641 82.374 133.321 82.2413 133.081 82.007C132.842 81.7726 132.702 81.4548 132.692 81.12C132.688 80.9571 132.717 80.795 132.777 80.6435C132.837 80.4919 132.927 80.3538 133.041 80.2373C133.155 80.1208 133.291 80.0282 133.441 79.9651C133.591 79.9019 133.753 79.8694 133.916 79.8694C134.25 79.871 134.571 80.0022 134.81 80.2355C135.05 80.4687 135.19 80.7858 135.2 81.12Z" fill="black"/>
<path d="M179.816 137.505C179.478 138.553 179.235 139.472 178.991 140.459C178.748 141.446 178.538 142.406 178.315 143.38C177.941 145.34 177.66 147.318 177.47 149.315C177.273 151.323 177.2 153.341 177.254 155.358C177.254 155.865 177.301 156.372 177.328 156.879C177.355 157.386 177.382 157.9 177.443 158.414C177.504 158.928 177.538 159.408 177.619 159.969L177.774 160.854L177.998 161.713C178.653 163.808 179.661 165.777 180.979 167.533C182.194 169.175 183.551 170.706 185.035 172.11C186.475 173.477 187.984 174.77 189.557 175.983C191.132 177.179 192.77 178.29 194.465 179.309L196.067 176.97C194.668 175.787 193.241 174.53 191.916 173.225C190.576 171.952 189.302 170.612 188.097 169.21C186.922 167.854 185.851 166.413 184.893 164.897C184.446 164.173 184.042 163.423 183.683 162.652C183.362 161.93 183.104 161.181 182.912 160.415L182.804 159.867L182.736 159.34C182.703 158.955 182.689 158.468 182.662 158.035C182.635 157.603 182.662 157.143 182.662 156.683C182.662 156.224 182.662 155.791 182.662 155.331C182.703 153.526 182.899 151.721 183.095 149.923C183.291 148.125 183.635 146.3 184.007 144.515C184.183 143.616 184.379 142.724 184.595 141.811C184.812 140.899 185.048 140.006 185.271 139.222L179.816 137.505Z" fill="#FF8B7B"/>
<path d="M194.438 175.997L199.44 176.078L196.79 181.296C196.79 181.296 193.958 179.944 193.052 177.822L194.438 175.997Z" fill="#FF8B7B"/>
<path d="M203.233 179.214L200.542 182.723L196.79 181.296L199.44 176.078L203.233 179.214Z" fill="#FF8B7B"/>
<path d="M192.579 134.984C192.045 136.707 190.118 139.837 188.59 142.163C187.489 143.833 186.562 145.083 186.562 145.083L185.609 144.495L177.68 139.567C178.951 135.099 180.675 130.285 186.001 128.751C189.388 127.832 193.532 131.908 192.579 134.984Z" fill="#F48F56"/>
<path opacity="0.3" d="M188.604 142.163C187.502 143.833 186.576 145.083 186.576 145.083L185.623 144.495C186.008 142.71 186.759 139.925 187.908 138.783C188.381 139.846 188.619 140.999 188.604 142.163Z" fill="black"/>
<path d="M249.816 259.429L245.402 262.876L236.005 253.757L240.419 250.316L249.816 259.429Z" fill="#FF8B7B"/>
<path d="M243.536 261.551L248.302 257.441C248.383 257.37 248.487 257.33 248.596 257.33C248.704 257.33 248.808 257.37 248.89 257.441L252.682 260.74C252.779 260.824 252.857 260.927 252.911 261.044C252.964 261.161 252.992 261.288 252.992 261.416C252.992 261.544 252.964 261.671 252.911 261.788C252.857 261.904 252.779 262.008 252.682 262.092C250.999 263.498 250.113 264.12 248.024 265.905C246.733 267.013 244.05 269.67 242.272 271.204C240.494 272.739 238.892 271.062 239.48 270.265C242.184 266.682 242.779 264.35 243.083 262.443C243.127 262.103 243.287 261.788 243.536 261.551Z" fill="#263238"/>
<path opacity="0.2" d="M240.419 250.316L236.005 253.764L240.852 258.462L245.266 255.014L240.419 250.316Z" fill="black"/>
<path d="M201.211 117.779C201.536 120.558 202.313 123.37 203.976 124.492C203.976 124.492 205.328 127.02 197.683 134.186C191.491 128.345 193.796 126.229 193.796 126.229C197.304 124.736 196.959 122.302 195.283 118.428L197.987 116.813C198.215 116.535 198.521 116.331 198.865 116.226C199.209 116.122 199.576 116.121 199.921 116.224C200.265 116.327 200.571 116.53 200.801 116.807C201.031 117.083 201.173 117.422 201.211 117.779Z" fill="#FF8B7B"/>
<path d="M215.394 128.44C217.476 131.773 219.342 135.126 221.093 138.58C222.878 142.051 224.458 145.624 225.825 149.281L226.325 150.674C226.487 151.127 226.602 151.471 226.744 151.782C226.794 151.896 226.851 152.006 226.913 152.114C226.802 152.016 226.676 151.936 226.541 151.877C226.176 151.722 225.769 151.693 225.385 151.796C225.13 151.86 224.897 151.99 224.709 152.174C224.567 152.343 224.648 152.289 224.709 152.174C224.871 151.869 225.004 151.55 225.108 151.221C225.23 150.829 225.345 150.41 225.453 149.984C225.669 149.119 225.845 148.22 226.007 147.28C226.683 143.63 227.143 139.844 227.629 136.092L230.158 136.194C230.295 140.069 230.202 143.95 229.881 147.814C229.779 148.794 229.664 149.775 229.495 150.782C229.414 151.289 229.313 151.803 229.184 152.33C229.048 152.926 228.856 153.508 228.61 154.067C228.409 154.515 228.132 154.924 227.792 155.277C227.443 155.632 227.007 155.888 226.528 156.021C225.911 156.184 225.256 156.129 224.675 155.865C224.326 155.694 224.009 155.466 223.736 155.189C223.563 155.018 223.404 154.833 223.263 154.635C223.057 154.346 222.872 154.044 222.708 153.729C222.424 153.182 222.208 152.634 222.032 152.195L221.512 150.91C220.085 147.53 218.382 144.15 216.651 140.831C214.921 137.512 212.94 134.321 211.061 131.144L215.394 128.44Z" fill="#FF8B7B"/>
<path d="M230.117 137.708L230.394 133.044L225.872 133.774C225.872 133.774 227.041 137.411 228.454 138.844L230.117 137.708Z" fill="#FF8B7B"/>
<path d="M229.286 129.522L226.048 130.806L225.872 133.774L230.394 133.044L229.286 129.522Z" fill="#FF8B7B"/>
<path d="M213.711 124.12C216.523 124.377 221.059 133.584 221.059 133.584L212.852 139.885C212.852 139.885 208.553 133.314 208.546 129.684C208.546 126.581 210.135 123.789 213.711 124.12Z" fill="#F48F56"/>
<path opacity="0.3" d="M211.588 133.672C210.696 132.895 210.236 133.591 210.047 134.848C210.864 136.577 211.79 138.252 212.818 139.864L214.711 138.411C214.092 136.591 213.017 134.959 211.588 133.672Z" fill="black"/>
<path d="M215.455 158.279L193.039 162.098C182.223 130.617 184.568 129.346 184.568 129.346C184.568 129.346 188.273 127.859 192.072 126.723C192.646 126.547 193.228 126.385 193.796 126.229C197.144 125.41 200.546 124.829 203.976 124.492C204.483 124.425 204.983 124.377 205.49 124.33C208.224 124.097 210.969 124.027 213.711 124.12C213.467 128.237 213.312 131.732 213.251 134.774C213.163 138.742 213.251 141.94 213.393 144.718C213.716 149.286 214.406 153.821 215.455 158.279Z" fill="#F48F56"/>
<path d="M228.096 275.97L222.607 276.497L218.95 263.62L224.439 263.092L228.096 275.97Z" fill="#FF8B7B"/>
<path d="M221.62 274.828H228.265C228.383 274.828 228.498 274.867 228.593 274.939C228.687 275.011 228.754 275.112 228.785 275.227L230.232 280.486C230.267 280.61 230.272 280.74 230.248 280.867C230.223 280.993 230.169 281.112 230.09 281.214C230.011 281.316 229.91 281.398 229.794 281.453C229.677 281.509 229.55 281.536 229.421 281.534C227.082 281.534 225.973 281.534 223.046 281.534H214.116C211.689 281.534 211.182 279.08 212.19 278.83C216.692 277.836 219.288 276.457 220.68 275.146C220.942 274.924 221.278 274.811 221.62 274.828Z" fill="#263238"/>
<path opacity="0.2" d="M218.95 263.626L220.836 270.258H226.48L224.446 263.092L218.95 263.626Z" fill="black"/>
<path d="M201.705 160.624C201.705 160.624 203.226 205.7 206.809 222.404C210.236 238.418 218.463 268.372 218.463 268.372L228.13 268.122C228.13 268.122 219.815 233.065 219.342 219.585C218.483 196.371 223.215 166.931 215.482 158.312L201.705 160.624Z" fill="#263238"/>
<path opacity="0.3" d="M201.705 160.624C201.705 160.624 203.226 205.7 206.809 222.404C210.236 238.418 218.463 268.372 218.463 268.372L228.13 268.122C228.13 268.122 219.815 233.065 219.342 219.585C218.483 196.371 223.215 166.931 215.482 158.312L201.705 160.624Z" fill="black"/>
<path d="M217.861 268.838L229.042 268.534L228.353 264.864L216.239 265.485L217.861 268.838Z" fill="#F48F56"/>
<path d="M218.672 275.923C218.218 275.955 217.765 275.846 217.375 275.612C217.273 275.538 217.189 275.442 217.13 275.33C217.072 275.219 217.04 275.096 217.037 274.97C217.03 274.9 217.043 274.831 217.072 274.768C217.102 274.705 217.148 274.651 217.206 274.611C217.807 274.206 220.072 275.233 220.518 275.443C220.543 275.454 220.564 275.474 220.578 275.498C220.591 275.523 220.596 275.551 220.592 275.578C220.589 275.605 220.578 275.631 220.559 275.651C220.541 275.672 220.517 275.686 220.491 275.693C219.894 275.829 219.285 275.906 218.672 275.923ZM217.611 274.774C217.521 274.768 217.432 274.789 217.354 274.835C217.354 274.835 217.3 274.882 217.3 274.956C217.304 275.044 217.327 275.129 217.368 275.206C217.408 275.284 217.466 275.351 217.537 275.402C217.922 275.693 218.841 275.734 220.031 275.511C219.267 275.144 218.451 274.895 217.611 274.774Z" fill="#F48F56"/>
<path d="M189.76 109.019C189.692 109.465 189.402 109.789 189.084 109.749C188.766 109.708 188.611 109.302 188.678 108.856C188.746 108.41 189.037 108.086 189.354 108.126C189.672 108.167 189.828 108.572 189.76 109.019Z" fill="#263238"/>
<path d="M220.464 275.693H220.41C219.659 275.382 218.145 274.172 218.233 273.543C218.233 273.408 218.348 273.232 218.686 273.192C220.038 273.036 220.565 275.436 220.592 275.538C220.597 275.561 220.596 275.586 220.587 275.609C220.579 275.631 220.564 275.651 220.545 275.666C220.534 275.676 220.521 275.684 220.507 275.689C220.493 275.693 220.479 275.695 220.464 275.693ZM218.808 273.449H218.72C218.576 273.449 218.501 273.489 218.497 273.57C218.449 273.935 219.49 274.922 220.254 275.315C220.079 274.733 219.605 273.449 218.808 273.449Z" fill="#F48F56"/>
<path d="M191.43 107.579C191.379 107.563 191.336 107.529 191.308 107.484C191.157 107.186 190.937 106.928 190.667 106.732C190.396 106.536 190.083 106.407 189.753 106.355C189.685 106.347 189.621 106.313 189.576 106.26C189.531 106.208 189.508 106.14 189.51 106.071C189.512 106.036 189.522 106.001 189.538 105.97C189.554 105.938 189.576 105.911 189.604 105.888C189.631 105.865 189.662 105.848 189.696 105.838C189.73 105.827 189.765 105.824 189.801 105.828C190.218 105.884 190.616 106.041 190.959 106.285C191.303 106.529 191.583 106.852 191.774 107.227C191.791 107.258 191.801 107.291 191.805 107.326C191.808 107.361 191.805 107.395 191.795 107.429C191.785 107.462 191.768 107.493 191.746 107.52C191.724 107.547 191.697 107.569 191.666 107.585C191.629 107.603 191.588 107.611 191.547 107.61C191.506 107.609 191.466 107.598 191.43 107.579Z" fill="#263238"/>
<path d="M189.476 108.16L188.449 107.687C188.449 107.687 188.874 108.626 189.476 108.16Z" fill="#263238"/>
<path d="M189.611 109.201C189.058 110.162 188.376 111.042 187.583 111.817C187.787 112.013 188.031 112.162 188.299 112.254C188.566 112.346 188.85 112.379 189.131 112.351L189.611 109.201Z" fill="#FF5652"/>
<path d="M205.173 108.836C204.01 114.244 203.638 116.596 200.441 118.976C195.641 122.586 189.212 119.976 188.726 114.305C188.286 109.194 190.253 101.163 195.945 99.7844C197.203 99.4709 198.521 99.4852 199.771 99.8257C201.022 100.166 202.165 100.822 203.091 101.73C204.016 102.637 204.693 103.767 205.058 105.011C205.422 106.255 205.462 107.572 205.173 108.836Z" fill="#FF8B7B"/>
<path d="M193.039 162.098C193.039 162.098 197.257 194.931 204.652 215.57C210.621 232.24 237.56 256.589 237.56 256.589L243.826 251.344C243.826 251.344 224.277 226.156 220.248 214.799C211.176 189.28 219.024 171.251 211.96 158.86L193.039 162.098Z" fill="#263238"/>
<path d="M238.128 258.773L245.476 252.466L243.38 249.194L235.343 256.508L238.128 258.773Z" fill="#F48F56"/>
<path d="M215.563 156.906L216.915 158.738C217.016 158.88 216.861 159.07 216.604 159.117L193.086 163.126C192.883 163.166 192.701 163.092 192.667 162.97L192.119 160.996C192.119 160.861 192.241 160.712 192.464 160.672L215.171 156.832C215.237 156.81 215.308 156.805 215.377 156.818C215.445 156.831 215.509 156.861 215.563 156.906Z" fill="#F48F56"/>
<path opacity="0.4" d="M215.563 156.906L216.915 158.738C217.016 158.88 216.861 159.07 216.604 159.117L193.086 163.126C192.883 163.166 192.701 163.092 192.667 162.97L192.119 160.996C192.119 160.861 192.241 160.712 192.464 160.672L215.171 156.832C215.237 156.81 215.308 156.805 215.377 156.818C215.445 156.831 215.509 156.861 215.563 156.906Z" fill="white"/>
<path d="M213.846 159.746L214.447 159.637C214.569 159.637 214.65 159.543 214.63 159.468L213.9 156.906C213.9 156.832 213.765 156.785 213.643 156.812L213.035 156.913C212.913 156.913 212.832 157.008 212.852 157.089L213.582 159.644C213.616 159.719 213.724 159.766 213.846 159.746Z" fill="#263238"/>
<path d="M200.644 162.098L201.252 161.99C201.374 161.99 201.455 161.895 201.434 161.821L200.704 159.259C200.678 159.215 200.637 159.182 200.589 159.165C200.541 159.148 200.489 159.147 200.441 159.164L199.832 159.266C199.711 159.266 199.63 159.367 199.657 159.441L200.387 161.997C200.407 162.071 200.522 162.118 200.644 162.098Z" fill="#263238"/>
<path d="M241.819 264.019H241.731C241.601 264.013 241.475 263.973 241.365 263.905C241.255 263.836 241.165 263.74 241.102 263.626C241.055 263.562 241.026 263.486 241.017 263.406C241.009 263.327 241.022 263.246 241.055 263.174C241.359 262.498 243.36 262.241 243.59 262.214C243.615 262.209 243.641 262.212 243.664 262.223C243.687 262.234 243.706 262.252 243.718 262.274C243.731 262.297 243.738 262.323 243.738 262.349C243.738 262.375 243.731 262.401 243.718 262.423C243.299 263.005 242.508 263.958 241.819 264.019ZM243.306 262.531C242.508 262.667 241.454 262.95 241.278 263.288C241.259 263.319 241.25 263.354 241.25 263.39C241.25 263.426 241.259 263.461 241.278 263.491C241.318 263.567 241.377 263.632 241.45 263.679C241.522 263.726 241.604 263.755 241.69 263.762C242.123 263.768 242.684 263.315 243.306 262.531Z" fill="#F48F56"/>
<path d="M243.488 262.498C242.812 262.565 241.46 262.308 241.156 261.822C241.104 261.729 241.086 261.622 241.103 261.518C241.12 261.413 241.172 261.318 241.251 261.247C241.318 261.17 241.401 261.11 241.495 261.07C241.589 261.03 241.69 261.012 241.792 261.017C242.603 261.017 243.664 262.241 243.705 262.288C243.716 262.309 243.722 262.332 243.722 262.356C243.722 262.379 243.716 262.402 243.705 262.423C243.697 262.445 243.683 262.463 243.665 262.478C243.647 262.492 243.626 262.501 243.603 262.504C243.565 262.507 243.526 262.505 243.488 262.498ZM241.731 261.254C241.622 261.264 241.521 261.315 241.447 261.396C241.332 261.524 241.352 261.605 241.386 261.659C241.575 262.004 242.65 262.274 243.333 262.247C242.961 261.862 242.272 261.26 241.785 261.254H241.731Z" fill="#F48F56"/>
<path d="M209.425 100.724C214.833 101.096 214.292 113.325 215.509 125.148C217.246 141.852 192.863 144.36 191.849 123.235C190.815 102.515 197.913 91.6318 209.425 100.724Z" fill="#263238"/>
<path d="M202.692 97.4589C194.161 95.9717 186.515 101.211 193.039 109.749C199.704 118.489 221.322 100.724 202.692 97.4589Z" fill="#263238"/>
<path d="M192.951 111.047C192.868 111.435 192.701 111.8 192.462 112.117C192.222 112.434 191.916 112.694 191.565 112.878C190.787 113.176 190.402 111.837 190.618 110.519C190.815 109.323 191.463 107.734 192.241 108.038C193.018 108.343 193.336 109.884 192.951 111.047Z" fill="#FF8B7B"/>
</svg>
